G04 #@! TF.GenerationSoftware,KiCad,Pcbnew,8.0.8*
G04 #@! TF.CreationDate,2025-03-21T12:20:43+00:00*
G04 #@! TF.ProjectId,RFM95W-pcb01,52464d39-3557-42d7-9063-6230312e6b69,rev?*
G04 #@! TF.SameCoordinates,Original*
G04 #@! TF.FileFunction,Legend,Top*
G04 #@! TF.FilePolarity,Positive*
%FSLAX46Y46*%
G04 Gerber Fmt 4.6, Leading zero omitted, Abs format (unit mm)*
G04 Created by KiCad (PCBNEW 8.0.8) date 2025-03-21 12:20:43*
%MOMM*%
%LPD*%
G01*
G04 APERTURE LIST*
%ADD10C,0.120000*%
%ADD11C,0.300000*%
%ADD12C,0.150000*%
%ADD13O,1.700000X1.700000*%
%ADD14R,1.700000X1.700000*%
%ADD15R,3.600000X1.270000*%
%ADD16R,4.200000X1.350000*%
%ADD17R,2.000000X1.000000*%
G04 APERTURE END LIST*
D10*
X168732285Y-45311902D02*
X169018000Y-45311902D01*
X168675142Y-45483331D02*
X168875142Y-44883331D01*
X168875142Y-44883331D02*
X169075142Y-45483331D01*
X169275143Y-45483331D02*
X169275143Y-44883331D01*
X169275143Y-44883331D02*
X169618000Y-45483331D01*
X169618000Y-45483331D02*
X169618000Y-44883331D01*
X169817999Y-44883331D02*
X170160857Y-44883331D01*
X169989428Y-45483331D02*
X169989428Y-44883331D01*
X168960857Y-42879902D02*
X168903715Y-42851331D01*
X168903715Y-42851331D02*
X168818000Y-42851331D01*
X168818000Y-42851331D02*
X168732286Y-42879902D01*
X168732286Y-42879902D02*
X168675143Y-42937045D01*
X168675143Y-42937045D02*
X168646572Y-42994188D01*
X168646572Y-42994188D02*
X168618000Y-43108474D01*
X168618000Y-43108474D02*
X168618000Y-43194188D01*
X168618000Y-43194188D02*
X168646572Y-43308474D01*
X168646572Y-43308474D02*
X168675143Y-43365617D01*
X168675143Y-43365617D02*
X168732286Y-43422760D01*
X168732286Y-43422760D02*
X168818000Y-43451331D01*
X168818000Y-43451331D02*
X168875143Y-43451331D01*
X168875143Y-43451331D02*
X168960857Y-43422760D01*
X168960857Y-43422760D02*
X168989429Y-43394188D01*
X168989429Y-43394188D02*
X168989429Y-43194188D01*
X168989429Y-43194188D02*
X168875143Y-43194188D01*
X169246572Y-43451331D02*
X169246572Y-42851331D01*
X169246572Y-42851331D02*
X169589429Y-43451331D01*
X169589429Y-43451331D02*
X169589429Y-42851331D01*
X169875143Y-43451331D02*
X169875143Y-42851331D01*
X169875143Y-42851331D02*
X170018000Y-42851331D01*
X170018000Y-42851331D02*
X170103714Y-42879902D01*
X170103714Y-42879902D02*
X170160857Y-42937045D01*
X170160857Y-42937045D02*
X170189428Y-42994188D01*
X170189428Y-42994188D02*
X170218000Y-43108474D01*
X170218000Y-43108474D02*
X170218000Y-43194188D01*
X170218000Y-43194188D02*
X170189428Y-43308474D01*
X170189428Y-43308474D02*
X170160857Y-43365617D01*
X170160857Y-43365617D02*
X170103714Y-43422760D01*
X170103714Y-43422760D02*
X170018000Y-43451331D01*
X170018000Y-43451331D02*
X169875143Y-43451331D01*
X168518000Y-40911331D02*
X168518000Y-40311331D01*
X168518000Y-40311331D02*
X168660857Y-40311331D01*
X168660857Y-40311331D02*
X168746571Y-40339902D01*
X168746571Y-40339902D02*
X168803714Y-40397045D01*
X168803714Y-40397045D02*
X168832285Y-40454188D01*
X168832285Y-40454188D02*
X168860857Y-40568474D01*
X168860857Y-40568474D02*
X168860857Y-40654188D01*
X168860857Y-40654188D02*
X168832285Y-40768474D01*
X168832285Y-40768474D02*
X168803714Y-40825617D01*
X168803714Y-40825617D02*
X168746571Y-40882760D01*
X168746571Y-40882760D02*
X168660857Y-40911331D01*
X168660857Y-40911331D02*
X168518000Y-40911331D01*
X169118000Y-40911331D02*
X169118000Y-40311331D01*
X169517999Y-40311331D02*
X169632285Y-40311331D01*
X169632285Y-40311331D02*
X169689428Y-40339902D01*
X169689428Y-40339902D02*
X169746571Y-40397045D01*
X169746571Y-40397045D02*
X169775142Y-40511331D01*
X169775142Y-40511331D02*
X169775142Y-40711331D01*
X169775142Y-40711331D02*
X169746571Y-40825617D01*
X169746571Y-40825617D02*
X169689428Y-40882760D01*
X169689428Y-40882760D02*
X169632285Y-40911331D01*
X169632285Y-40911331D02*
X169517999Y-40911331D01*
X169517999Y-40911331D02*
X169460857Y-40882760D01*
X169460857Y-40882760D02*
X169403714Y-40825617D01*
X169403714Y-40825617D02*
X169375142Y-40711331D01*
X169375142Y-40711331D02*
X169375142Y-40511331D01*
X169375142Y-40511331D02*
X169403714Y-40397045D01*
X169403714Y-40397045D02*
X169460857Y-40339902D01*
X169460857Y-40339902D02*
X169517999Y-40311331D01*
X169975142Y-40311331D02*
X170346570Y-40311331D01*
X170346570Y-40311331D02*
X170146570Y-40539902D01*
X170146570Y-40539902D02*
X170232285Y-40539902D01*
X170232285Y-40539902D02*
X170289428Y-40568474D01*
X170289428Y-40568474D02*
X170317999Y-40597045D01*
X170317999Y-40597045D02*
X170346570Y-40654188D01*
X170346570Y-40654188D02*
X170346570Y-40797045D01*
X170346570Y-40797045D02*
X170317999Y-40854188D01*
X170317999Y-40854188D02*
X170289428Y-40882760D01*
X170289428Y-40882760D02*
X170232285Y-40911331D01*
X170232285Y-40911331D02*
X170060856Y-40911331D01*
X170060856Y-40911331D02*
X170003713Y-40882760D01*
X170003713Y-40882760D02*
X169975142Y-40854188D01*
X168518000Y-38371331D02*
X168518000Y-37771331D01*
X168518000Y-37771331D02*
X168660857Y-37771331D01*
X168660857Y-37771331D02*
X168746571Y-37799902D01*
X168746571Y-37799902D02*
X168803714Y-37857045D01*
X168803714Y-37857045D02*
X168832285Y-37914188D01*
X168832285Y-37914188D02*
X168860857Y-38028474D01*
X168860857Y-38028474D02*
X168860857Y-38114188D01*
X168860857Y-38114188D02*
X168832285Y-38228474D01*
X168832285Y-38228474D02*
X168803714Y-38285617D01*
X168803714Y-38285617D02*
X168746571Y-38342760D01*
X168746571Y-38342760D02*
X168660857Y-38371331D01*
X168660857Y-38371331D02*
X168518000Y-38371331D01*
X169118000Y-38371331D02*
X169118000Y-37771331D01*
X169517999Y-37771331D02*
X169632285Y-37771331D01*
X169632285Y-37771331D02*
X169689428Y-37799902D01*
X169689428Y-37799902D02*
X169746571Y-37857045D01*
X169746571Y-37857045D02*
X169775142Y-37971331D01*
X169775142Y-37971331D02*
X169775142Y-38171331D01*
X169775142Y-38171331D02*
X169746571Y-38285617D01*
X169746571Y-38285617D02*
X169689428Y-38342760D01*
X169689428Y-38342760D02*
X169632285Y-38371331D01*
X169632285Y-38371331D02*
X169517999Y-38371331D01*
X169517999Y-38371331D02*
X169460857Y-38342760D01*
X169460857Y-38342760D02*
X169403714Y-38285617D01*
X169403714Y-38285617D02*
X169375142Y-38171331D01*
X169375142Y-38171331D02*
X169375142Y-37971331D01*
X169375142Y-37971331D02*
X169403714Y-37857045D01*
X169403714Y-37857045D02*
X169460857Y-37799902D01*
X169460857Y-37799902D02*
X169517999Y-37771331D01*
X170289428Y-37971331D02*
X170289428Y-38371331D01*
X170146570Y-37742760D02*
X170003713Y-38171331D01*
X170003713Y-38171331D02*
X170375142Y-38171331D01*
X168675142Y-35231331D02*
X169046570Y-35231331D01*
X169046570Y-35231331D02*
X168846570Y-35459902D01*
X168846570Y-35459902D02*
X168932285Y-35459902D01*
X168932285Y-35459902D02*
X168989428Y-35488474D01*
X168989428Y-35488474D02*
X169017999Y-35517045D01*
X169017999Y-35517045D02*
X169046570Y-35574188D01*
X169046570Y-35574188D02*
X169046570Y-35717045D01*
X169046570Y-35717045D02*
X169017999Y-35774188D01*
X169017999Y-35774188D02*
X168989428Y-35802760D01*
X168989428Y-35802760D02*
X168932285Y-35831331D01*
X168932285Y-35831331D02*
X168760856Y-35831331D01*
X168760856Y-35831331D02*
X168703713Y-35802760D01*
X168703713Y-35802760D02*
X168675142Y-35774188D01*
X169217999Y-35231331D02*
X169417999Y-35831331D01*
X169417999Y-35831331D02*
X169617999Y-35231331D01*
X169760857Y-35231331D02*
X170132285Y-35231331D01*
X170132285Y-35231331D02*
X169932285Y-35459902D01*
X169932285Y-35459902D02*
X170018000Y-35459902D01*
X170018000Y-35459902D02*
X170075143Y-35488474D01*
X170075143Y-35488474D02*
X170103714Y-35517045D01*
X170103714Y-35517045D02*
X170132285Y-35574188D01*
X170132285Y-35574188D02*
X170132285Y-35717045D01*
X170132285Y-35717045D02*
X170103714Y-35774188D01*
X170103714Y-35774188D02*
X170075143Y-35802760D01*
X170075143Y-35802760D02*
X170018000Y-35831331D01*
X170018000Y-35831331D02*
X169846571Y-35831331D01*
X169846571Y-35831331D02*
X169789428Y-35802760D01*
X169789428Y-35802760D02*
X169760857Y-35774188D01*
X168518000Y-33291331D02*
X168518000Y-32691331D01*
X168518000Y-32691331D02*
X168660857Y-32691331D01*
X168660857Y-32691331D02*
X168746571Y-32719902D01*
X168746571Y-32719902D02*
X168803714Y-32777045D01*
X168803714Y-32777045D02*
X168832285Y-32834188D01*
X168832285Y-32834188D02*
X168860857Y-32948474D01*
X168860857Y-32948474D02*
X168860857Y-33034188D01*
X168860857Y-33034188D02*
X168832285Y-33148474D01*
X168832285Y-33148474D02*
X168803714Y-33205617D01*
X168803714Y-33205617D02*
X168746571Y-33262760D01*
X168746571Y-33262760D02*
X168660857Y-33291331D01*
X168660857Y-33291331D02*
X168518000Y-33291331D01*
X169118000Y-33291331D02*
X169118000Y-32691331D01*
X169517999Y-32691331D02*
X169632285Y-32691331D01*
X169632285Y-32691331D02*
X169689428Y-32719902D01*
X169689428Y-32719902D02*
X169746571Y-32777045D01*
X169746571Y-32777045D02*
X169775142Y-32891331D01*
X169775142Y-32891331D02*
X169775142Y-33091331D01*
X169775142Y-33091331D02*
X169746571Y-33205617D01*
X169746571Y-33205617D02*
X169689428Y-33262760D01*
X169689428Y-33262760D02*
X169632285Y-33291331D01*
X169632285Y-33291331D02*
X169517999Y-33291331D01*
X169517999Y-33291331D02*
X169460857Y-33262760D01*
X169460857Y-33262760D02*
X169403714Y-33205617D01*
X169403714Y-33205617D02*
X169375142Y-33091331D01*
X169375142Y-33091331D02*
X169375142Y-32891331D01*
X169375142Y-32891331D02*
X169403714Y-32777045D01*
X169403714Y-32777045D02*
X169460857Y-32719902D01*
X169460857Y-32719902D02*
X169517999Y-32691331D01*
X170146570Y-32691331D02*
X170203713Y-32691331D01*
X170203713Y-32691331D02*
X170260856Y-32719902D01*
X170260856Y-32719902D02*
X170289428Y-32748474D01*
X170289428Y-32748474D02*
X170317999Y-32805617D01*
X170317999Y-32805617D02*
X170346570Y-32919902D01*
X170346570Y-32919902D02*
X170346570Y-33062760D01*
X170346570Y-33062760D02*
X170317999Y-33177045D01*
X170317999Y-33177045D02*
X170289428Y-33234188D01*
X170289428Y-33234188D02*
X170260856Y-33262760D01*
X170260856Y-33262760D02*
X170203713Y-33291331D01*
X170203713Y-33291331D02*
X170146570Y-33291331D01*
X170146570Y-33291331D02*
X170089428Y-33262760D01*
X170089428Y-33262760D02*
X170060856Y-33234188D01*
X170060856Y-33234188D02*
X170032285Y-33177045D01*
X170032285Y-33177045D02*
X170003713Y-33062760D01*
X170003713Y-33062760D02*
X170003713Y-32919902D01*
X170003713Y-32919902D02*
X170032285Y-32805617D01*
X170032285Y-32805617D02*
X170060856Y-32748474D01*
X170060856Y-32748474D02*
X170089428Y-32719902D01*
X170089428Y-32719902D02*
X170146570Y-32691331D01*
X168518000Y-30751331D02*
X168518000Y-30151331D01*
X168518000Y-30151331D02*
X168660857Y-30151331D01*
X168660857Y-30151331D02*
X168746571Y-30179902D01*
X168746571Y-30179902D02*
X168803714Y-30237045D01*
X168803714Y-30237045D02*
X168832285Y-30294188D01*
X168832285Y-30294188D02*
X168860857Y-30408474D01*
X168860857Y-30408474D02*
X168860857Y-30494188D01*
X168860857Y-30494188D02*
X168832285Y-30608474D01*
X168832285Y-30608474D02*
X168803714Y-30665617D01*
X168803714Y-30665617D02*
X168746571Y-30722760D01*
X168746571Y-30722760D02*
X168660857Y-30751331D01*
X168660857Y-30751331D02*
X168518000Y-30751331D01*
X169118000Y-30751331D02*
X169118000Y-30151331D01*
X169517999Y-30151331D02*
X169632285Y-30151331D01*
X169632285Y-30151331D02*
X169689428Y-30179902D01*
X169689428Y-30179902D02*
X169746571Y-30237045D01*
X169746571Y-30237045D02*
X169775142Y-30351331D01*
X169775142Y-30351331D02*
X169775142Y-30551331D01*
X169775142Y-30551331D02*
X169746571Y-30665617D01*
X169746571Y-30665617D02*
X169689428Y-30722760D01*
X169689428Y-30722760D02*
X169632285Y-30751331D01*
X169632285Y-30751331D02*
X169517999Y-30751331D01*
X169517999Y-30751331D02*
X169460857Y-30722760D01*
X169460857Y-30722760D02*
X169403714Y-30665617D01*
X169403714Y-30665617D02*
X169375142Y-30551331D01*
X169375142Y-30551331D02*
X169375142Y-30351331D01*
X169375142Y-30351331D02*
X169403714Y-30237045D01*
X169403714Y-30237045D02*
X169460857Y-30179902D01*
X169460857Y-30179902D02*
X169517999Y-30151331D01*
X170346570Y-30751331D02*
X170003713Y-30751331D01*
X170175142Y-30751331D02*
X170175142Y-30151331D01*
X170175142Y-30151331D02*
X170117999Y-30237045D01*
X170117999Y-30237045D02*
X170060856Y-30294188D01*
X170060856Y-30294188D02*
X170003713Y-30322760D01*
X168518000Y-28211331D02*
X168518000Y-27611331D01*
X168518000Y-27611331D02*
X168660857Y-27611331D01*
X168660857Y-27611331D02*
X168746571Y-27639902D01*
X168746571Y-27639902D02*
X168803714Y-27697045D01*
X168803714Y-27697045D02*
X168832285Y-27754188D01*
X168832285Y-27754188D02*
X168860857Y-27868474D01*
X168860857Y-27868474D02*
X168860857Y-27954188D01*
X168860857Y-27954188D02*
X168832285Y-28068474D01*
X168832285Y-28068474D02*
X168803714Y-28125617D01*
X168803714Y-28125617D02*
X168746571Y-28182760D01*
X168746571Y-28182760D02*
X168660857Y-28211331D01*
X168660857Y-28211331D02*
X168518000Y-28211331D01*
X169118000Y-28211331D02*
X169118000Y-27611331D01*
X169517999Y-27611331D02*
X169632285Y-27611331D01*
X169632285Y-27611331D02*
X169689428Y-27639902D01*
X169689428Y-27639902D02*
X169746571Y-27697045D01*
X169746571Y-27697045D02*
X169775142Y-27811331D01*
X169775142Y-27811331D02*
X169775142Y-28011331D01*
X169775142Y-28011331D02*
X169746571Y-28125617D01*
X169746571Y-28125617D02*
X169689428Y-28182760D01*
X169689428Y-28182760D02*
X169632285Y-28211331D01*
X169632285Y-28211331D02*
X169517999Y-28211331D01*
X169517999Y-28211331D02*
X169460857Y-28182760D01*
X169460857Y-28182760D02*
X169403714Y-28125617D01*
X169403714Y-28125617D02*
X169375142Y-28011331D01*
X169375142Y-28011331D02*
X169375142Y-27811331D01*
X169375142Y-27811331D02*
X169403714Y-27697045D01*
X169403714Y-27697045D02*
X169460857Y-27639902D01*
X169460857Y-27639902D02*
X169517999Y-27611331D01*
X170003713Y-27668474D02*
X170032285Y-27639902D01*
X170032285Y-27639902D02*
X170089428Y-27611331D01*
X170089428Y-27611331D02*
X170232285Y-27611331D01*
X170232285Y-27611331D02*
X170289428Y-27639902D01*
X170289428Y-27639902D02*
X170317999Y-27668474D01*
X170317999Y-27668474D02*
X170346570Y-27725617D01*
X170346570Y-27725617D02*
X170346570Y-27782760D01*
X170346570Y-27782760D02*
X170317999Y-27868474D01*
X170317999Y-27868474D02*
X169975142Y-28211331D01*
X169975142Y-28211331D02*
X170346570Y-28211331D01*
X137972857Y-45673902D02*
X137915715Y-45645331D01*
X137915715Y-45645331D02*
X137830000Y-45645331D01*
X137830000Y-45645331D02*
X137744286Y-45673902D01*
X137744286Y-45673902D02*
X137687143Y-45731045D01*
X137687143Y-45731045D02*
X137658572Y-45788188D01*
X137658572Y-45788188D02*
X137630000Y-45902474D01*
X137630000Y-45902474D02*
X137630000Y-45988188D01*
X137630000Y-45988188D02*
X137658572Y-46102474D01*
X137658572Y-46102474D02*
X137687143Y-46159617D01*
X137687143Y-46159617D02*
X137744286Y-46216760D01*
X137744286Y-46216760D02*
X137830000Y-46245331D01*
X137830000Y-46245331D02*
X137887143Y-46245331D01*
X137887143Y-46245331D02*
X137972857Y-46216760D01*
X137972857Y-46216760D02*
X138001429Y-46188188D01*
X138001429Y-46188188D02*
X138001429Y-45988188D01*
X138001429Y-45988188D02*
X137887143Y-45988188D01*
X138258572Y-46245331D02*
X138258572Y-45645331D01*
X138258572Y-45645331D02*
X138601429Y-46245331D01*
X138601429Y-46245331D02*
X138601429Y-45645331D01*
X138887143Y-46245331D02*
X138887143Y-45645331D01*
X138887143Y-45645331D02*
X139030000Y-45645331D01*
X139030000Y-45645331D02*
X139115714Y-45673902D01*
X139115714Y-45673902D02*
X139172857Y-45731045D01*
X139172857Y-45731045D02*
X139201428Y-45788188D01*
X139201428Y-45788188D02*
X139230000Y-45902474D01*
X139230000Y-45902474D02*
X139230000Y-45988188D01*
X139230000Y-45988188D02*
X139201428Y-46102474D01*
X139201428Y-46102474D02*
X139172857Y-46159617D01*
X139172857Y-46159617D02*
X139115714Y-46216760D01*
X139115714Y-46216760D02*
X139030000Y-46245331D01*
X139030000Y-46245331D02*
X138887143Y-46245331D01*
X137530000Y-43705331D02*
X137530000Y-43105331D01*
X137530000Y-43105331D02*
X137672857Y-43105331D01*
X137672857Y-43105331D02*
X137758571Y-43133902D01*
X137758571Y-43133902D02*
X137815714Y-43191045D01*
X137815714Y-43191045D02*
X137844285Y-43248188D01*
X137844285Y-43248188D02*
X137872857Y-43362474D01*
X137872857Y-43362474D02*
X137872857Y-43448188D01*
X137872857Y-43448188D02*
X137844285Y-43562474D01*
X137844285Y-43562474D02*
X137815714Y-43619617D01*
X137815714Y-43619617D02*
X137758571Y-43676760D01*
X137758571Y-43676760D02*
X137672857Y-43705331D01*
X137672857Y-43705331D02*
X137530000Y-43705331D01*
X138130000Y-43705331D02*
X138130000Y-43105331D01*
X138529999Y-43105331D02*
X138644285Y-43105331D01*
X138644285Y-43105331D02*
X138701428Y-43133902D01*
X138701428Y-43133902D02*
X138758571Y-43191045D01*
X138758571Y-43191045D02*
X138787142Y-43305331D01*
X138787142Y-43305331D02*
X138787142Y-43505331D01*
X138787142Y-43505331D02*
X138758571Y-43619617D01*
X138758571Y-43619617D02*
X138701428Y-43676760D01*
X138701428Y-43676760D02*
X138644285Y-43705331D01*
X138644285Y-43705331D02*
X138529999Y-43705331D01*
X138529999Y-43705331D02*
X138472857Y-43676760D01*
X138472857Y-43676760D02*
X138415714Y-43619617D01*
X138415714Y-43619617D02*
X138387142Y-43505331D01*
X138387142Y-43505331D02*
X138387142Y-43305331D01*
X138387142Y-43305331D02*
X138415714Y-43191045D01*
X138415714Y-43191045D02*
X138472857Y-43133902D01*
X138472857Y-43133902D02*
X138529999Y-43105331D01*
X139329999Y-43105331D02*
X139044285Y-43105331D01*
X139044285Y-43105331D02*
X139015713Y-43391045D01*
X139015713Y-43391045D02*
X139044285Y-43362474D01*
X139044285Y-43362474D02*
X139101428Y-43333902D01*
X139101428Y-43333902D02*
X139244285Y-43333902D01*
X139244285Y-43333902D02*
X139301428Y-43362474D01*
X139301428Y-43362474D02*
X139329999Y-43391045D01*
X139329999Y-43391045D02*
X139358570Y-43448188D01*
X139358570Y-43448188D02*
X139358570Y-43591045D01*
X139358570Y-43591045D02*
X139329999Y-43648188D01*
X139329999Y-43648188D02*
X139301428Y-43676760D01*
X139301428Y-43676760D02*
X139244285Y-43705331D01*
X139244285Y-43705331D02*
X139101428Y-43705331D01*
X139101428Y-43705331D02*
X139044285Y-43676760D01*
X139044285Y-43676760D02*
X139015713Y-43648188D01*
X138101428Y-41165331D02*
X137901428Y-40879617D01*
X137758571Y-41165331D02*
X137758571Y-40565331D01*
X137758571Y-40565331D02*
X137987142Y-40565331D01*
X137987142Y-40565331D02*
X138044285Y-40593902D01*
X138044285Y-40593902D02*
X138072856Y-40622474D01*
X138072856Y-40622474D02*
X138101428Y-40679617D01*
X138101428Y-40679617D02*
X138101428Y-40765331D01*
X138101428Y-40765331D02*
X138072856Y-40822474D01*
X138072856Y-40822474D02*
X138044285Y-40851045D01*
X138044285Y-40851045D02*
X137987142Y-40879617D01*
X137987142Y-40879617D02*
X137758571Y-40879617D01*
X138329999Y-41136760D02*
X138415714Y-41165331D01*
X138415714Y-41165331D02*
X138558571Y-41165331D01*
X138558571Y-41165331D02*
X138615714Y-41136760D01*
X138615714Y-41136760D02*
X138644285Y-41108188D01*
X138644285Y-41108188D02*
X138672856Y-41051045D01*
X138672856Y-41051045D02*
X138672856Y-40993902D01*
X138672856Y-40993902D02*
X138644285Y-40936760D01*
X138644285Y-40936760D02*
X138615714Y-40908188D01*
X138615714Y-40908188D02*
X138558571Y-40879617D01*
X138558571Y-40879617D02*
X138444285Y-40851045D01*
X138444285Y-40851045D02*
X138387142Y-40822474D01*
X138387142Y-40822474D02*
X138358571Y-40793902D01*
X138358571Y-40793902D02*
X138329999Y-40736760D01*
X138329999Y-40736760D02*
X138329999Y-40679617D01*
X138329999Y-40679617D02*
X138358571Y-40622474D01*
X138358571Y-40622474D02*
X138387142Y-40593902D01*
X138387142Y-40593902D02*
X138444285Y-40565331D01*
X138444285Y-40565331D02*
X138587142Y-40565331D01*
X138587142Y-40565331D02*
X138672856Y-40593902D01*
X138844285Y-40565331D02*
X139187143Y-40565331D01*
X139015714Y-41165331D02*
X139015714Y-40565331D01*
X137687143Y-39641331D02*
X137687143Y-39041331D01*
X137687143Y-39041331D02*
X138030000Y-39641331D01*
X138030000Y-39641331D02*
X138030000Y-39041331D01*
X138287142Y-39612760D02*
X138372857Y-39641331D01*
X138372857Y-39641331D02*
X138515714Y-39641331D01*
X138515714Y-39641331D02*
X138572857Y-39612760D01*
X138572857Y-39612760D02*
X138601428Y-39584188D01*
X138601428Y-39584188D02*
X138629999Y-39527045D01*
X138629999Y-39527045D02*
X138629999Y-39469902D01*
X138629999Y-39469902D02*
X138601428Y-39412760D01*
X138601428Y-39412760D02*
X138572857Y-39384188D01*
X138572857Y-39384188D02*
X138515714Y-39355617D01*
X138515714Y-39355617D02*
X138401428Y-39327045D01*
X138401428Y-39327045D02*
X138344285Y-39298474D01*
X138344285Y-39298474D02*
X138315714Y-39269902D01*
X138315714Y-39269902D02*
X138287142Y-39212760D01*
X138287142Y-39212760D02*
X138287142Y-39155617D01*
X138287142Y-39155617D02*
X138315714Y-39098474D01*
X138315714Y-39098474D02*
X138344285Y-39069902D01*
X138344285Y-39069902D02*
X138401428Y-39041331D01*
X138401428Y-39041331D02*
X138544285Y-39041331D01*
X138544285Y-39041331D02*
X138629999Y-39069902D01*
X138858571Y-39612760D02*
X138944286Y-39641331D01*
X138944286Y-39641331D02*
X139087143Y-39641331D01*
X139087143Y-39641331D02*
X139144286Y-39612760D01*
X139144286Y-39612760D02*
X139172857Y-39584188D01*
X139172857Y-39584188D02*
X139201428Y-39527045D01*
X139201428Y-39527045D02*
X139201428Y-39469902D01*
X139201428Y-39469902D02*
X139172857Y-39412760D01*
X139172857Y-39412760D02*
X139144286Y-39384188D01*
X139144286Y-39384188D02*
X139087143Y-39355617D01*
X139087143Y-39355617D02*
X138972857Y-39327045D01*
X138972857Y-39327045D02*
X138915714Y-39298474D01*
X138915714Y-39298474D02*
X138887143Y-39269902D01*
X138887143Y-39269902D02*
X138858571Y-39212760D01*
X138858571Y-39212760D02*
X138858571Y-39155617D01*
X138858571Y-39155617D02*
X138887143Y-39098474D01*
X138887143Y-39098474D02*
X138915714Y-39069902D01*
X138915714Y-39069902D02*
X138972857Y-39041331D01*
X138972857Y-39041331D02*
X139115714Y-39041331D01*
X139115714Y-39041331D02*
X139201428Y-39069902D01*
X137658571Y-36056760D02*
X137744286Y-36085331D01*
X137744286Y-36085331D02*
X137887143Y-36085331D01*
X137887143Y-36085331D02*
X137944286Y-36056760D01*
X137944286Y-36056760D02*
X137972857Y-36028188D01*
X137972857Y-36028188D02*
X138001428Y-35971045D01*
X138001428Y-35971045D02*
X138001428Y-35913902D01*
X138001428Y-35913902D02*
X137972857Y-35856760D01*
X137972857Y-35856760D02*
X137944286Y-35828188D01*
X137944286Y-35828188D02*
X137887143Y-35799617D01*
X137887143Y-35799617D02*
X137772857Y-35771045D01*
X137772857Y-35771045D02*
X137715714Y-35742474D01*
X137715714Y-35742474D02*
X137687143Y-35713902D01*
X137687143Y-35713902D02*
X137658571Y-35656760D01*
X137658571Y-35656760D02*
X137658571Y-35599617D01*
X137658571Y-35599617D02*
X137687143Y-35542474D01*
X137687143Y-35542474D02*
X137715714Y-35513902D01*
X137715714Y-35513902D02*
X137772857Y-35485331D01*
X137772857Y-35485331D02*
X137915714Y-35485331D01*
X137915714Y-35485331D02*
X138001428Y-35513902D01*
X138601429Y-36028188D02*
X138572857Y-36056760D01*
X138572857Y-36056760D02*
X138487143Y-36085331D01*
X138487143Y-36085331D02*
X138430000Y-36085331D01*
X138430000Y-36085331D02*
X138344286Y-36056760D01*
X138344286Y-36056760D02*
X138287143Y-35999617D01*
X138287143Y-35999617D02*
X138258572Y-35942474D01*
X138258572Y-35942474D02*
X138230000Y-35828188D01*
X138230000Y-35828188D02*
X138230000Y-35742474D01*
X138230000Y-35742474D02*
X138258572Y-35628188D01*
X138258572Y-35628188D02*
X138287143Y-35571045D01*
X138287143Y-35571045D02*
X138344286Y-35513902D01*
X138344286Y-35513902D02*
X138430000Y-35485331D01*
X138430000Y-35485331D02*
X138487143Y-35485331D01*
X138487143Y-35485331D02*
X138572857Y-35513902D01*
X138572857Y-35513902D02*
X138601429Y-35542474D01*
X138858572Y-36085331D02*
X138858572Y-35485331D01*
X139201429Y-36085331D02*
X138944286Y-35742474D01*
X139201429Y-35485331D02*
X138858572Y-35828188D01*
X137487143Y-33545331D02*
X137487143Y-32945331D01*
X137487143Y-32945331D02*
X137687143Y-33373902D01*
X137687143Y-33373902D02*
X137887143Y-32945331D01*
X137887143Y-32945331D02*
X137887143Y-33545331D01*
X138287142Y-32945331D02*
X138401428Y-32945331D01*
X138401428Y-32945331D02*
X138458571Y-32973902D01*
X138458571Y-32973902D02*
X138515714Y-33031045D01*
X138515714Y-33031045D02*
X138544285Y-33145331D01*
X138544285Y-33145331D02*
X138544285Y-33345331D01*
X138544285Y-33345331D02*
X138515714Y-33459617D01*
X138515714Y-33459617D02*
X138458571Y-33516760D01*
X138458571Y-33516760D02*
X138401428Y-33545331D01*
X138401428Y-33545331D02*
X138287142Y-33545331D01*
X138287142Y-33545331D02*
X138230000Y-33516760D01*
X138230000Y-33516760D02*
X138172857Y-33459617D01*
X138172857Y-33459617D02*
X138144285Y-33345331D01*
X138144285Y-33345331D02*
X138144285Y-33145331D01*
X138144285Y-33145331D02*
X138172857Y-33031045D01*
X138172857Y-33031045D02*
X138230000Y-32973902D01*
X138230000Y-32973902D02*
X138287142Y-32945331D01*
X138772856Y-33516760D02*
X138858571Y-33545331D01*
X138858571Y-33545331D02*
X139001428Y-33545331D01*
X139001428Y-33545331D02*
X139058571Y-33516760D01*
X139058571Y-33516760D02*
X139087142Y-33488188D01*
X139087142Y-33488188D02*
X139115713Y-33431045D01*
X139115713Y-33431045D02*
X139115713Y-33373902D01*
X139115713Y-33373902D02*
X139087142Y-33316760D01*
X139087142Y-33316760D02*
X139058571Y-33288188D01*
X139058571Y-33288188D02*
X139001428Y-33259617D01*
X139001428Y-33259617D02*
X138887142Y-33231045D01*
X138887142Y-33231045D02*
X138829999Y-33202474D01*
X138829999Y-33202474D02*
X138801428Y-33173902D01*
X138801428Y-33173902D02*
X138772856Y-33116760D01*
X138772856Y-33116760D02*
X138772856Y-33059617D01*
X138772856Y-33059617D02*
X138801428Y-33002474D01*
X138801428Y-33002474D02*
X138829999Y-32973902D01*
X138829999Y-32973902D02*
X138887142Y-32945331D01*
X138887142Y-32945331D02*
X139029999Y-32945331D01*
X139029999Y-32945331D02*
X139115713Y-32973902D01*
X139372857Y-33545331D02*
X139372857Y-32945331D01*
X137487143Y-31005331D02*
X137487143Y-30405331D01*
X137487143Y-30405331D02*
X137687143Y-30833902D01*
X137687143Y-30833902D02*
X137887143Y-30405331D01*
X137887143Y-30405331D02*
X137887143Y-31005331D01*
X138172857Y-31005331D02*
X138172857Y-30405331D01*
X138429999Y-30976760D02*
X138515714Y-31005331D01*
X138515714Y-31005331D02*
X138658571Y-31005331D01*
X138658571Y-31005331D02*
X138715714Y-30976760D01*
X138715714Y-30976760D02*
X138744285Y-30948188D01*
X138744285Y-30948188D02*
X138772856Y-30891045D01*
X138772856Y-30891045D02*
X138772856Y-30833902D01*
X138772856Y-30833902D02*
X138744285Y-30776760D01*
X138744285Y-30776760D02*
X138715714Y-30748188D01*
X138715714Y-30748188D02*
X138658571Y-30719617D01*
X138658571Y-30719617D02*
X138544285Y-30691045D01*
X138544285Y-30691045D02*
X138487142Y-30662474D01*
X138487142Y-30662474D02*
X138458571Y-30633902D01*
X138458571Y-30633902D02*
X138429999Y-30576760D01*
X138429999Y-30576760D02*
X138429999Y-30519617D01*
X138429999Y-30519617D02*
X138458571Y-30462474D01*
X138458571Y-30462474D02*
X138487142Y-30433902D01*
X138487142Y-30433902D02*
X138544285Y-30405331D01*
X138544285Y-30405331D02*
X138687142Y-30405331D01*
X138687142Y-30405331D02*
X138772856Y-30433902D01*
X139144285Y-30405331D02*
X139258571Y-30405331D01*
X139258571Y-30405331D02*
X139315714Y-30433902D01*
X139315714Y-30433902D02*
X139372857Y-30491045D01*
X139372857Y-30491045D02*
X139401428Y-30605331D01*
X139401428Y-30605331D02*
X139401428Y-30805331D01*
X139401428Y-30805331D02*
X139372857Y-30919617D01*
X139372857Y-30919617D02*
X139315714Y-30976760D01*
X139315714Y-30976760D02*
X139258571Y-31005331D01*
X139258571Y-31005331D02*
X139144285Y-31005331D01*
X139144285Y-31005331D02*
X139087143Y-30976760D01*
X139087143Y-30976760D02*
X139030000Y-30919617D01*
X139030000Y-30919617D02*
X139001428Y-30805331D01*
X139001428Y-30805331D02*
X139001428Y-30605331D01*
X139001428Y-30605331D02*
X139030000Y-30491045D01*
X139030000Y-30491045D02*
X139087143Y-30433902D01*
X139087143Y-30433902D02*
X139144285Y-30405331D01*
X137972857Y-27893902D02*
X137915715Y-27865331D01*
X137915715Y-27865331D02*
X137830000Y-27865331D01*
X137830000Y-27865331D02*
X137744286Y-27893902D01*
X137744286Y-27893902D02*
X137687143Y-27951045D01*
X137687143Y-27951045D02*
X137658572Y-28008188D01*
X137658572Y-28008188D02*
X137630000Y-28122474D01*
X137630000Y-28122474D02*
X137630000Y-28208188D01*
X137630000Y-28208188D02*
X137658572Y-28322474D01*
X137658572Y-28322474D02*
X137687143Y-28379617D01*
X137687143Y-28379617D02*
X137744286Y-28436760D01*
X137744286Y-28436760D02*
X137830000Y-28465331D01*
X137830000Y-28465331D02*
X137887143Y-28465331D01*
X137887143Y-28465331D02*
X137972857Y-28436760D01*
X137972857Y-28436760D02*
X138001429Y-28408188D01*
X138001429Y-28408188D02*
X138001429Y-28208188D01*
X138001429Y-28208188D02*
X137887143Y-28208188D01*
X138258572Y-28465331D02*
X138258572Y-27865331D01*
X138258572Y-27865331D02*
X138601429Y-28465331D01*
X138601429Y-28465331D02*
X138601429Y-27865331D01*
X138887143Y-28465331D02*
X138887143Y-27865331D01*
X138887143Y-27865331D02*
X139030000Y-27865331D01*
X139030000Y-27865331D02*
X139115714Y-27893902D01*
X139115714Y-27893902D02*
X139172857Y-27951045D01*
X139172857Y-27951045D02*
X139201428Y-28008188D01*
X139201428Y-28008188D02*
X139230000Y-28122474D01*
X139230000Y-28122474D02*
X139230000Y-28208188D01*
X139230000Y-28208188D02*
X139201428Y-28322474D01*
X139201428Y-28322474D02*
X139172857Y-28379617D01*
X139172857Y-28379617D02*
X139115714Y-28436760D01*
X139115714Y-28436760D02*
X139030000Y-28465331D01*
X139030000Y-28465331D02*
X138887143Y-28465331D01*
D11*
X149749428Y-29103638D02*
X149082761Y-28151257D01*
X148606571Y-29103638D02*
X148606571Y-27103638D01*
X148606571Y-27103638D02*
X149368476Y-27103638D01*
X149368476Y-27103638D02*
X149558952Y-27198876D01*
X149558952Y-27198876D02*
X149654190Y-27294114D01*
X149654190Y-27294114D02*
X149749428Y-27484590D01*
X149749428Y-27484590D02*
X149749428Y-27770304D01*
X149749428Y-27770304D02*
X149654190Y-27960780D01*
X149654190Y-27960780D02*
X149558952Y-28056019D01*
X149558952Y-28056019D02*
X149368476Y-28151257D01*
X149368476Y-28151257D02*
X148606571Y-28151257D01*
X151273238Y-28056019D02*
X150606571Y-28056019D01*
X150606571Y-29103638D02*
X150606571Y-27103638D01*
X150606571Y-27103638D02*
X151558952Y-27103638D01*
X152320857Y-29103638D02*
X152320857Y-27103638D01*
X152320857Y-27103638D02*
X152987524Y-28532209D01*
X152987524Y-28532209D02*
X153654190Y-27103638D01*
X153654190Y-27103638D02*
X153654190Y-29103638D01*
X154701809Y-29103638D02*
X155082761Y-29103638D01*
X155082761Y-29103638D02*
X155273238Y-29008400D01*
X155273238Y-29008400D02*
X155368476Y-28913161D01*
X155368476Y-28913161D02*
X155558952Y-28627447D01*
X155558952Y-28627447D02*
X155654190Y-28246495D01*
X155654190Y-28246495D02*
X155654190Y-27484590D01*
X155654190Y-27484590D02*
X155558952Y-27294114D01*
X155558952Y-27294114D02*
X155463714Y-27198876D01*
X155463714Y-27198876D02*
X155273238Y-27103638D01*
X155273238Y-27103638D02*
X154892285Y-27103638D01*
X154892285Y-27103638D02*
X154701809Y-27198876D01*
X154701809Y-27198876D02*
X154606571Y-27294114D01*
X154606571Y-27294114D02*
X154511333Y-27484590D01*
X154511333Y-27484590D02*
X154511333Y-27960780D01*
X154511333Y-27960780D02*
X154606571Y-28151257D01*
X154606571Y-28151257D02*
X154701809Y-28246495D01*
X154701809Y-28246495D02*
X154892285Y-28341733D01*
X154892285Y-28341733D02*
X155273238Y-28341733D01*
X155273238Y-28341733D02*
X155463714Y-28246495D01*
X155463714Y-28246495D02*
X155558952Y-28151257D01*
X155558952Y-28151257D02*
X155654190Y-27960780D01*
X157463714Y-27103638D02*
X156511333Y-27103638D01*
X156511333Y-27103638D02*
X156416095Y-28056019D01*
X156416095Y-28056019D02*
X156511333Y-27960780D01*
X156511333Y-27960780D02*
X156701809Y-27865542D01*
X156701809Y-27865542D02*
X157178000Y-27865542D01*
X157178000Y-27865542D02*
X157368476Y-27960780D01*
X157368476Y-27960780D02*
X157463714Y-28056019D01*
X157463714Y-28056019D02*
X157558952Y-28246495D01*
X157558952Y-28246495D02*
X157558952Y-28722685D01*
X157558952Y-28722685D02*
X157463714Y-28913161D01*
X157463714Y-28913161D02*
X157368476Y-29008400D01*
X157368476Y-29008400D02*
X157178000Y-29103638D01*
X157178000Y-29103638D02*
X156701809Y-29103638D01*
X156701809Y-29103638D02*
X156511333Y-29008400D01*
X156511333Y-29008400D02*
X156416095Y-28913161D01*
X158225619Y-27103638D02*
X158701809Y-29103638D01*
X158701809Y-29103638D02*
X159082762Y-27675066D01*
X159082762Y-27675066D02*
X159463714Y-29103638D01*
X159463714Y-29103638D02*
X159939905Y-27103638D01*
D12*
X174368033Y-53202000D02*
X174368033Y-53535333D01*
X174368033Y-53535333D02*
X174701366Y-53568666D01*
X174701366Y-53568666D02*
X174668033Y-53535333D01*
X174668033Y-53535333D02*
X174634700Y-53468666D01*
X174634700Y-53468666D02*
X174634700Y-53302000D01*
X174634700Y-53302000D02*
X174668033Y-53235333D01*
X174668033Y-53235333D02*
X174701366Y-53202000D01*
X174701366Y-53202000D02*
X174768033Y-53168666D01*
X174768033Y-53168666D02*
X174934700Y-53168666D01*
X174934700Y-53168666D02*
X175001366Y-53202000D01*
X175001366Y-53202000D02*
X175034700Y-53235333D01*
X175034700Y-53235333D02*
X175068033Y-53302000D01*
X175068033Y-53302000D02*
X175068033Y-53468666D01*
X175068033Y-53468666D02*
X175034700Y-53535333D01*
X175034700Y-53535333D02*
X175001366Y-53568666D01*
X174368033Y-52968666D02*
X175068033Y-52735333D01*
X175068033Y-52735333D02*
X174368033Y-52501999D01*
X174401366Y-50835333D02*
X174368033Y-50902000D01*
X174368033Y-50902000D02*
X174368033Y-51002000D01*
X174368033Y-51002000D02*
X174401366Y-51102000D01*
X174401366Y-51102000D02*
X174468033Y-51168667D01*
X174468033Y-51168667D02*
X174534700Y-51202000D01*
X174534700Y-51202000D02*
X174668033Y-51235333D01*
X174668033Y-51235333D02*
X174768033Y-51235333D01*
X174768033Y-51235333D02*
X174901366Y-51202000D01*
X174901366Y-51202000D02*
X174968033Y-51168667D01*
X174968033Y-51168667D02*
X175034700Y-51102000D01*
X175034700Y-51102000D02*
X175068033Y-51002000D01*
X175068033Y-51002000D02*
X175068033Y-50935333D01*
X175068033Y-50935333D02*
X175034700Y-50835333D01*
X175034700Y-50835333D02*
X175001366Y-50802000D01*
X175001366Y-50802000D02*
X174768033Y-50802000D01*
X174768033Y-50802000D02*
X174768033Y-50935333D01*
X175068033Y-50502000D02*
X174368033Y-50502000D01*
X174368033Y-50502000D02*
X175068033Y-50102000D01*
X175068033Y-50102000D02*
X174368033Y-50102000D01*
X175068033Y-49768667D02*
X174368033Y-49768667D01*
X174368033Y-49768667D02*
X174368033Y-49602000D01*
X174368033Y-49602000D02*
X174401366Y-49502000D01*
X174401366Y-49502000D02*
X174468033Y-49435334D01*
X174468033Y-49435334D02*
X174534700Y-49402000D01*
X174534700Y-49402000D02*
X174668033Y-49368667D01*
X174668033Y-49368667D02*
X174768033Y-49368667D01*
X174768033Y-49368667D02*
X174901366Y-49402000D01*
X174901366Y-49402000D02*
X174968033Y-49435334D01*
X174968033Y-49435334D02*
X175034700Y-49502000D01*
X175034700Y-49502000D02*
X175068033Y-49602000D01*
X175068033Y-49602000D02*
X175068033Y-49768667D01*
X174368033Y-48602001D02*
X174368033Y-48168667D01*
X174368033Y-48168667D02*
X174634700Y-48402001D01*
X174634700Y-48402001D02*
X174634700Y-48302001D01*
X174634700Y-48302001D02*
X174668033Y-48235334D01*
X174668033Y-48235334D02*
X174701366Y-48202001D01*
X174701366Y-48202001D02*
X174768033Y-48168667D01*
X174768033Y-48168667D02*
X174934700Y-48168667D01*
X174934700Y-48168667D02*
X175001366Y-48202001D01*
X175001366Y-48202001D02*
X175034700Y-48235334D01*
X175034700Y-48235334D02*
X175068033Y-48302001D01*
X175068033Y-48302001D02*
X175068033Y-48502001D01*
X175068033Y-48502001D02*
X175034700Y-48568667D01*
X175034700Y-48568667D02*
X175001366Y-48602001D01*
X174368033Y-47968667D02*
X175068033Y-47735334D01*
X175068033Y-47735334D02*
X174368033Y-47502000D01*
X174368033Y-47335334D02*
X174368033Y-46902000D01*
X174368033Y-46902000D02*
X174634700Y-47135334D01*
X174634700Y-47135334D02*
X174634700Y-47035334D01*
X174634700Y-47035334D02*
X174668033Y-46968667D01*
X174668033Y-46968667D02*
X174701366Y-46935334D01*
X174701366Y-46935334D02*
X174768033Y-46902000D01*
X174768033Y-46902000D02*
X174934700Y-46902000D01*
X174934700Y-46902000D02*
X175001366Y-46935334D01*
X175001366Y-46935334D02*
X175034700Y-46968667D01*
X175034700Y-46968667D02*
X175068033Y-47035334D01*
X175068033Y-47035334D02*
X175068033Y-47235334D01*
X175068033Y-47235334D02*
X175034700Y-47302000D01*
X175034700Y-47302000D02*
X175001366Y-47335334D01*
X175034700Y-46102000D02*
X175068033Y-46002000D01*
X175068033Y-46002000D02*
X175068033Y-45835334D01*
X175068033Y-45835334D02*
X175034700Y-45768667D01*
X175034700Y-45768667D02*
X175001366Y-45735334D01*
X175001366Y-45735334D02*
X174934700Y-45702000D01*
X174934700Y-45702000D02*
X174868033Y-45702000D01*
X174868033Y-45702000D02*
X174801366Y-45735334D01*
X174801366Y-45735334D02*
X174768033Y-45768667D01*
X174768033Y-45768667D02*
X174734700Y-45835334D01*
X174734700Y-45835334D02*
X174701366Y-45968667D01*
X174701366Y-45968667D02*
X174668033Y-46035334D01*
X174668033Y-46035334D02*
X174634700Y-46068667D01*
X174634700Y-46068667D02*
X174568033Y-46102000D01*
X174568033Y-46102000D02*
X174501366Y-46102000D01*
X174501366Y-46102000D02*
X174434700Y-46068667D01*
X174434700Y-46068667D02*
X174401366Y-46035334D01*
X174401366Y-46035334D02*
X174368033Y-45968667D01*
X174368033Y-45968667D02*
X174368033Y-45802000D01*
X174368033Y-45802000D02*
X174401366Y-45702000D01*
X175068033Y-45402000D02*
X174368033Y-45402000D01*
X174368033Y-45402000D02*
X174368033Y-45235333D01*
X174368033Y-45235333D02*
X174401366Y-45135333D01*
X174401366Y-45135333D02*
X174468033Y-45068667D01*
X174468033Y-45068667D02*
X174534700Y-45035333D01*
X174534700Y-45035333D02*
X174668033Y-45002000D01*
X174668033Y-45002000D02*
X174768033Y-45002000D01*
X174768033Y-45002000D02*
X174901366Y-45035333D01*
X174901366Y-45035333D02*
X174968033Y-45068667D01*
X174968033Y-45068667D02*
X175034700Y-45135333D01*
X175034700Y-45135333D02*
X175068033Y-45235333D01*
X175068033Y-45235333D02*
X175068033Y-45402000D01*
X174868033Y-44735333D02*
X174868033Y-44402000D01*
X175068033Y-44802000D02*
X174368033Y-44568667D01*
X174368033Y-44568667D02*
X175068033Y-44335333D01*
X175034700Y-43602000D02*
X175068033Y-43502000D01*
X175068033Y-43502000D02*
X175068033Y-43335334D01*
X175068033Y-43335334D02*
X175034700Y-43268667D01*
X175034700Y-43268667D02*
X175001366Y-43235334D01*
X175001366Y-43235334D02*
X174934700Y-43202000D01*
X174934700Y-43202000D02*
X174868033Y-43202000D01*
X174868033Y-43202000D02*
X174801366Y-43235334D01*
X174801366Y-43235334D02*
X174768033Y-43268667D01*
X174768033Y-43268667D02*
X174734700Y-43335334D01*
X174734700Y-43335334D02*
X174701366Y-43468667D01*
X174701366Y-43468667D02*
X174668033Y-43535334D01*
X174668033Y-43535334D02*
X174634700Y-43568667D01*
X174634700Y-43568667D02*
X174568033Y-43602000D01*
X174568033Y-43602000D02*
X174501366Y-43602000D01*
X174501366Y-43602000D02*
X174434700Y-43568667D01*
X174434700Y-43568667D02*
X174401366Y-43535334D01*
X174401366Y-43535334D02*
X174368033Y-43468667D01*
X174368033Y-43468667D02*
X174368033Y-43302000D01*
X174368033Y-43302000D02*
X174401366Y-43202000D01*
X175001366Y-42502000D02*
X175034700Y-42535333D01*
X175034700Y-42535333D02*
X175068033Y-42635333D01*
X175068033Y-42635333D02*
X175068033Y-42702000D01*
X175068033Y-42702000D02*
X175034700Y-42802000D01*
X175034700Y-42802000D02*
X174968033Y-42868667D01*
X174968033Y-42868667D02*
X174901366Y-42902000D01*
X174901366Y-42902000D02*
X174768033Y-42935333D01*
X174768033Y-42935333D02*
X174668033Y-42935333D01*
X174668033Y-42935333D02*
X174534700Y-42902000D01*
X174534700Y-42902000D02*
X174468033Y-42868667D01*
X174468033Y-42868667D02*
X174401366Y-42802000D01*
X174401366Y-42802000D02*
X174368033Y-42702000D01*
X174368033Y-42702000D02*
X174368033Y-42635333D01*
X174368033Y-42635333D02*
X174401366Y-42535333D01*
X174401366Y-42535333D02*
X174434700Y-42502000D01*
X175068033Y-41868667D02*
X175068033Y-42202000D01*
X175068033Y-42202000D02*
X174368033Y-42202000D01*
X167572857Y-58517164D02*
X167215714Y-58517164D01*
X167215714Y-58517164D02*
X167180000Y-58874307D01*
X167180000Y-58874307D02*
X167215714Y-58838592D01*
X167215714Y-58838592D02*
X167287143Y-58802878D01*
X167287143Y-58802878D02*
X167465714Y-58802878D01*
X167465714Y-58802878D02*
X167537143Y-58838592D01*
X167537143Y-58838592D02*
X167572857Y-58874307D01*
X167572857Y-58874307D02*
X167608571Y-58945735D01*
X167608571Y-58945735D02*
X167608571Y-59124307D01*
X167608571Y-59124307D02*
X167572857Y-59195735D01*
X167572857Y-59195735D02*
X167537143Y-59231450D01*
X167537143Y-59231450D02*
X167465714Y-59267164D01*
X167465714Y-59267164D02*
X167287143Y-59267164D01*
X167287143Y-59267164D02*
X167215714Y-59231450D01*
X167215714Y-59231450D02*
X167180000Y-59195735D01*
X167822857Y-58517164D02*
X168072857Y-59267164D01*
X168072857Y-59267164D02*
X168322857Y-58517164D01*
X169537143Y-58552878D02*
X169465715Y-58517164D01*
X169465715Y-58517164D02*
X169358572Y-58517164D01*
X169358572Y-58517164D02*
X169251429Y-58552878D01*
X169251429Y-58552878D02*
X169180000Y-58624307D01*
X169180000Y-58624307D02*
X169144286Y-58695735D01*
X169144286Y-58695735D02*
X169108572Y-58838592D01*
X169108572Y-58838592D02*
X169108572Y-58945735D01*
X169108572Y-58945735D02*
X169144286Y-59088592D01*
X169144286Y-59088592D02*
X169180000Y-59160021D01*
X169180000Y-59160021D02*
X169251429Y-59231450D01*
X169251429Y-59231450D02*
X169358572Y-59267164D01*
X169358572Y-59267164D02*
X169430000Y-59267164D01*
X169430000Y-59267164D02*
X169537143Y-59231450D01*
X169537143Y-59231450D02*
X169572857Y-59195735D01*
X169572857Y-59195735D02*
X169572857Y-58945735D01*
X169572857Y-58945735D02*
X169430000Y-58945735D01*
X169894286Y-59267164D02*
X169894286Y-58517164D01*
X169894286Y-58517164D02*
X170322857Y-59267164D01*
X170322857Y-59267164D02*
X170322857Y-58517164D01*
X170680000Y-59267164D02*
X170680000Y-58517164D01*
X170680000Y-58517164D02*
X170858571Y-58517164D01*
X170858571Y-58517164D02*
X170965714Y-58552878D01*
X170965714Y-58552878D02*
X171037143Y-58624307D01*
X171037143Y-58624307D02*
X171072857Y-58695735D01*
X171072857Y-58695735D02*
X171108571Y-58838592D01*
X171108571Y-58838592D02*
X171108571Y-58945735D01*
X171108571Y-58945735D02*
X171072857Y-59088592D01*
X171072857Y-59088592D02*
X171037143Y-59160021D01*
X171037143Y-59160021D02*
X170965714Y-59231450D01*
X170965714Y-59231450D02*
X170858571Y-59267164D01*
X170858571Y-59267164D02*
X170680000Y-59267164D01*
X171930000Y-58517164D02*
X172394286Y-58517164D01*
X172394286Y-58517164D02*
X172144286Y-58802878D01*
X172144286Y-58802878D02*
X172251429Y-58802878D01*
X172251429Y-58802878D02*
X172322858Y-58838592D01*
X172322858Y-58838592D02*
X172358572Y-58874307D01*
X172358572Y-58874307D02*
X172394286Y-58945735D01*
X172394286Y-58945735D02*
X172394286Y-59124307D01*
X172394286Y-59124307D02*
X172358572Y-59195735D01*
X172358572Y-59195735D02*
X172322858Y-59231450D01*
X172322858Y-59231450D02*
X172251429Y-59267164D01*
X172251429Y-59267164D02*
X172037143Y-59267164D01*
X172037143Y-59267164D02*
X171965715Y-59231450D01*
X171965715Y-59231450D02*
X171930000Y-59195735D01*
X172608572Y-58517164D02*
X172858572Y-59267164D01*
X172858572Y-59267164D02*
X173108572Y-58517164D01*
X173287143Y-58517164D02*
X173751429Y-58517164D01*
X173751429Y-58517164D02*
X173501429Y-58802878D01*
X173501429Y-58802878D02*
X173608572Y-58802878D01*
X173608572Y-58802878D02*
X173680001Y-58838592D01*
X173680001Y-58838592D02*
X173715715Y-58874307D01*
X173715715Y-58874307D02*
X173751429Y-58945735D01*
X173751429Y-58945735D02*
X173751429Y-59124307D01*
X173751429Y-59124307D02*
X173715715Y-59195735D01*
X173715715Y-59195735D02*
X173680001Y-59231450D01*
X173680001Y-59231450D02*
X173608572Y-59267164D01*
X173608572Y-59267164D02*
X173394286Y-59267164D01*
X173394286Y-59267164D02*
X173322858Y-59231450D01*
X173322858Y-59231450D02*
X173287143Y-59195735D01*
X157206570Y-58517164D02*
X157670856Y-58517164D01*
X157670856Y-58517164D02*
X157420856Y-58802878D01*
X157420856Y-58802878D02*
X157527999Y-58802878D01*
X157527999Y-58802878D02*
X157599428Y-58838592D01*
X157599428Y-58838592D02*
X157635142Y-58874307D01*
X157635142Y-58874307D02*
X157670856Y-58945735D01*
X157670856Y-58945735D02*
X157670856Y-59124307D01*
X157670856Y-59124307D02*
X157635142Y-59195735D01*
X157635142Y-59195735D02*
X157599428Y-59231450D01*
X157599428Y-59231450D02*
X157527999Y-59267164D01*
X157527999Y-59267164D02*
X157313713Y-59267164D01*
X157313713Y-59267164D02*
X157242285Y-59231450D01*
X157242285Y-59231450D02*
X157206570Y-59195735D01*
X157885142Y-58517164D02*
X158135142Y-59267164D01*
X158135142Y-59267164D02*
X158385142Y-58517164D01*
X158563713Y-58517164D02*
X159027999Y-58517164D01*
X159027999Y-58517164D02*
X158777999Y-58802878D01*
X158777999Y-58802878D02*
X158885142Y-58802878D01*
X158885142Y-58802878D02*
X158956571Y-58838592D01*
X158956571Y-58838592D02*
X158992285Y-58874307D01*
X158992285Y-58874307D02*
X159027999Y-58945735D01*
X159027999Y-58945735D02*
X159027999Y-59124307D01*
X159027999Y-59124307D02*
X158992285Y-59195735D01*
X158992285Y-59195735D02*
X158956571Y-59231450D01*
X158956571Y-59231450D02*
X158885142Y-59267164D01*
X158885142Y-59267164D02*
X158670856Y-59267164D01*
X158670856Y-59267164D02*
X158599428Y-59231450D01*
X158599428Y-59231450D02*
X158563713Y-59195735D01*
X160313714Y-58552878D02*
X160242286Y-58517164D01*
X160242286Y-58517164D02*
X160135143Y-58517164D01*
X160135143Y-58517164D02*
X160028000Y-58552878D01*
X160028000Y-58552878D02*
X159956571Y-58624307D01*
X159956571Y-58624307D02*
X159920857Y-58695735D01*
X159920857Y-58695735D02*
X159885143Y-58838592D01*
X159885143Y-58838592D02*
X159885143Y-58945735D01*
X159885143Y-58945735D02*
X159920857Y-59088592D01*
X159920857Y-59088592D02*
X159956571Y-59160021D01*
X159956571Y-59160021D02*
X160028000Y-59231450D01*
X160028000Y-59231450D02*
X160135143Y-59267164D01*
X160135143Y-59267164D02*
X160206571Y-59267164D01*
X160206571Y-59267164D02*
X160313714Y-59231450D01*
X160313714Y-59231450D02*
X160349428Y-59195735D01*
X160349428Y-59195735D02*
X160349428Y-58945735D01*
X160349428Y-58945735D02*
X160206571Y-58945735D01*
X160670857Y-59267164D02*
X160670857Y-58517164D01*
X160670857Y-58517164D02*
X161099428Y-59267164D01*
X161099428Y-59267164D02*
X161099428Y-58517164D01*
X161456571Y-59267164D02*
X161456571Y-58517164D01*
X161456571Y-58517164D02*
X161635142Y-58517164D01*
X161635142Y-58517164D02*
X161742285Y-58552878D01*
X161742285Y-58552878D02*
X161813714Y-58624307D01*
X161813714Y-58624307D02*
X161849428Y-58695735D01*
X161849428Y-58695735D02*
X161885142Y-58838592D01*
X161885142Y-58838592D02*
X161885142Y-58945735D01*
X161885142Y-58945735D02*
X161849428Y-59088592D01*
X161849428Y-59088592D02*
X161813714Y-59160021D01*
X161813714Y-59160021D02*
X161742285Y-59231450D01*
X161742285Y-59231450D02*
X161635142Y-59267164D01*
X161635142Y-59267164D02*
X161456571Y-59267164D01*
X163135143Y-58517164D02*
X162778000Y-58517164D01*
X162778000Y-58517164D02*
X162742286Y-58874307D01*
X162742286Y-58874307D02*
X162778000Y-58838592D01*
X162778000Y-58838592D02*
X162849429Y-58802878D01*
X162849429Y-58802878D02*
X163028000Y-58802878D01*
X163028000Y-58802878D02*
X163099429Y-58838592D01*
X163099429Y-58838592D02*
X163135143Y-58874307D01*
X163135143Y-58874307D02*
X163170857Y-58945735D01*
X163170857Y-58945735D02*
X163170857Y-59124307D01*
X163170857Y-59124307D02*
X163135143Y-59195735D01*
X163135143Y-59195735D02*
X163099429Y-59231450D01*
X163099429Y-59231450D02*
X163028000Y-59267164D01*
X163028000Y-59267164D02*
X162849429Y-59267164D01*
X162849429Y-59267164D02*
X162778000Y-59231450D01*
X162778000Y-59231450D02*
X162742286Y-59195735D01*
X163385143Y-58517164D02*
X163635143Y-59267164D01*
X163635143Y-59267164D02*
X163885143Y-58517164D01*
X140589711Y-58588592D02*
X140625425Y-58552878D01*
X140625425Y-58552878D02*
X140696854Y-58517164D01*
X140696854Y-58517164D02*
X140875425Y-58517164D01*
X140875425Y-58517164D02*
X140946854Y-58552878D01*
X140946854Y-58552878D02*
X140982568Y-58588592D01*
X140982568Y-58588592D02*
X141018282Y-58660021D01*
X141018282Y-58660021D02*
X141018282Y-58731450D01*
X141018282Y-58731450D02*
X140982568Y-58838592D01*
X140982568Y-58838592D02*
X140553996Y-59267164D01*
X140553996Y-59267164D02*
X141018282Y-59267164D01*
X141696854Y-58517164D02*
X141339711Y-58517164D01*
X141339711Y-58517164D02*
X141303997Y-58874307D01*
X141303997Y-58874307D02*
X141339711Y-58838592D01*
X141339711Y-58838592D02*
X141411140Y-58802878D01*
X141411140Y-58802878D02*
X141589711Y-58802878D01*
X141589711Y-58802878D02*
X141661140Y-58838592D01*
X141661140Y-58838592D02*
X141696854Y-58874307D01*
X141696854Y-58874307D02*
X141732568Y-58945735D01*
X141732568Y-58945735D02*
X141732568Y-59124307D01*
X141732568Y-59124307D02*
X141696854Y-59195735D01*
X141696854Y-59195735D02*
X141661140Y-59231450D01*
X141661140Y-59231450D02*
X141589711Y-59267164D01*
X141589711Y-59267164D02*
X141411140Y-59267164D01*
X141411140Y-59267164D02*
X141339711Y-59231450D01*
X141339711Y-59231450D02*
X141303997Y-59195735D01*
X143161141Y-58588592D02*
X143196855Y-58552878D01*
X143196855Y-58552878D02*
X143268284Y-58517164D01*
X143268284Y-58517164D02*
X143446855Y-58517164D01*
X143446855Y-58517164D02*
X143518284Y-58552878D01*
X143518284Y-58552878D02*
X143553998Y-58588592D01*
X143553998Y-58588592D02*
X143589712Y-58660021D01*
X143589712Y-58660021D02*
X143589712Y-58731450D01*
X143589712Y-58731450D02*
X143553998Y-58838592D01*
X143553998Y-58838592D02*
X143125426Y-59267164D01*
X143125426Y-59267164D02*
X143589712Y-59267164D01*
X144232570Y-58767164D02*
X144232570Y-59267164D01*
X144053998Y-58481450D02*
X143875427Y-59017164D01*
X143875427Y-59017164D02*
X144339712Y-59017164D01*
X145732571Y-58588592D02*
X145768285Y-58552878D01*
X145768285Y-58552878D02*
X145839714Y-58517164D01*
X145839714Y-58517164D02*
X146018285Y-58517164D01*
X146018285Y-58517164D02*
X146089714Y-58552878D01*
X146089714Y-58552878D02*
X146125428Y-58588592D01*
X146125428Y-58588592D02*
X146161142Y-58660021D01*
X146161142Y-58660021D02*
X146161142Y-58731450D01*
X146161142Y-58731450D02*
X146125428Y-58838592D01*
X146125428Y-58838592D02*
X145696856Y-59267164D01*
X145696856Y-59267164D02*
X146161142Y-59267164D01*
X146411142Y-58517164D02*
X146875428Y-58517164D01*
X146875428Y-58517164D02*
X146625428Y-58802878D01*
X146625428Y-58802878D02*
X146732571Y-58802878D01*
X146732571Y-58802878D02*
X146804000Y-58838592D01*
X146804000Y-58838592D02*
X146839714Y-58874307D01*
X146839714Y-58874307D02*
X146875428Y-58945735D01*
X146875428Y-58945735D02*
X146875428Y-59124307D01*
X146875428Y-59124307D02*
X146839714Y-59195735D01*
X146839714Y-59195735D02*
X146804000Y-59231450D01*
X146804000Y-59231450D02*
X146732571Y-59267164D01*
X146732571Y-59267164D02*
X146518285Y-59267164D01*
X146518285Y-59267164D02*
X146446857Y-59231450D01*
X146446857Y-59231450D02*
X146411142Y-59195735D01*
X148732572Y-59267164D02*
X148304001Y-59267164D01*
X148518286Y-59267164D02*
X148518286Y-58517164D01*
X148518286Y-58517164D02*
X148446858Y-58624307D01*
X148446858Y-58624307D02*
X148375429Y-58695735D01*
X148375429Y-58695735D02*
X148304001Y-58731450D01*
X149411144Y-58517164D02*
X149054001Y-58517164D01*
X149054001Y-58517164D02*
X149018287Y-58874307D01*
X149018287Y-58874307D02*
X149054001Y-58838592D01*
X149054001Y-58838592D02*
X149125430Y-58802878D01*
X149125430Y-58802878D02*
X149304001Y-58802878D01*
X149304001Y-58802878D02*
X149375430Y-58838592D01*
X149375430Y-58838592D02*
X149411144Y-58874307D01*
X149411144Y-58874307D02*
X149446858Y-58945735D01*
X149446858Y-58945735D02*
X149446858Y-59124307D01*
X149446858Y-59124307D02*
X149411144Y-59195735D01*
X149411144Y-59195735D02*
X149375430Y-59231450D01*
X149375430Y-59231450D02*
X149304001Y-59267164D01*
X149304001Y-59267164D02*
X149125430Y-59267164D01*
X149125430Y-59267164D02*
X149054001Y-59231450D01*
X149054001Y-59231450D02*
X149018287Y-59195735D01*
X151304002Y-59267164D02*
X150875431Y-59267164D01*
X151089716Y-59267164D02*
X151089716Y-58517164D01*
X151089716Y-58517164D02*
X151018288Y-58624307D01*
X151018288Y-58624307D02*
X150946859Y-58695735D01*
X150946859Y-58695735D02*
X150875431Y-58731450D01*
X151946860Y-58767164D02*
X151946860Y-59267164D01*
X151768288Y-58481450D02*
X151589717Y-59017164D01*
X151589717Y-59017164D02*
X152054002Y-59017164D01*
X172036666Y-54926033D02*
X172036666Y-54226033D01*
X172336666Y-54292700D02*
X172369999Y-54259366D01*
X172369999Y-54259366D02*
X172436666Y-54226033D01*
X172436666Y-54226033D02*
X172603333Y-54226033D01*
X172603333Y-54226033D02*
X172669999Y-54259366D01*
X172669999Y-54259366D02*
X172703333Y-54292700D01*
X172703333Y-54292700D02*
X172736666Y-54359366D01*
X172736666Y-54359366D02*
X172736666Y-54426033D01*
X172736666Y-54426033D02*
X172703333Y-54526033D01*
X172703333Y-54526033D02*
X172303333Y-54926033D01*
X172303333Y-54926033D02*
X172736666Y-54926033D01*
X173436666Y-54859366D02*
X173403333Y-54892700D01*
X173403333Y-54892700D02*
X173303333Y-54926033D01*
X173303333Y-54926033D02*
X173236666Y-54926033D01*
X173236666Y-54926033D02*
X173136666Y-54892700D01*
X173136666Y-54892700D02*
X173070000Y-54826033D01*
X173070000Y-54826033D02*
X173036666Y-54759366D01*
X173036666Y-54759366D02*
X173003333Y-54626033D01*
X173003333Y-54626033D02*
X173003333Y-54526033D01*
X173003333Y-54526033D02*
X173036666Y-54392700D01*
X173036666Y-54392700D02*
X173070000Y-54326033D01*
X173070000Y-54326033D02*
X173136666Y-54259366D01*
X173136666Y-54259366D02*
X173236666Y-54226033D01*
X173236666Y-54226033D02*
X173303333Y-54226033D01*
X173303333Y-54226033D02*
X173403333Y-54259366D01*
X173403333Y-54259366D02*
X173436666Y-54292700D01*
D10*
X170494000Y-48962000D02*
X170494000Y-50292000D01*
X169164000Y-48962000D02*
X170494000Y-48962000D01*
X170494000Y-51562000D02*
X170494000Y-54162000D01*
X167894000Y-51562000D02*
X170494000Y-51562000D01*
X167894000Y-48962000D02*
X167894000Y-51562000D01*
X170494000Y-54162000D02*
X139894000Y-54162000D01*
X167894000Y-48962000D02*
X139894000Y-48962000D01*
X139894000Y-48962000D02*
X139894000Y-54162000D01*
X172720000Y-41342000D02*
X174050000Y-41342000D01*
X174050000Y-41342000D02*
X174050000Y-42672000D01*
X174050000Y-43942000D02*
X174050000Y-54162000D01*
X171390000Y-54162000D02*
X174050000Y-54162000D01*
X171390000Y-43942000D02*
X171390000Y-54162000D01*
X171390000Y-43942000D02*
X174050000Y-43942000D01*
X152714000Y-56896000D02*
X152714000Y-58226000D01*
X152714000Y-58226000D02*
X151384000Y-58226000D01*
X150114000Y-58226000D02*
X139894000Y-58226000D01*
X139894000Y-55566000D02*
X139894000Y-58226000D01*
X150114000Y-55566000D02*
X139894000Y-55566000D01*
X150114000Y-55566000D02*
X150114000Y-58226000D01*
X166310000Y-56896000D02*
X166310000Y-55566000D01*
X166310000Y-55566000D02*
X167640000Y-55566000D01*
X168910000Y-55566000D02*
X174050000Y-55566000D01*
X174050000Y-58226000D02*
X174050000Y-55566000D01*
X168910000Y-58226000D02*
X174050000Y-58226000D01*
X168910000Y-58226000D02*
X168910000Y-55566000D01*
X164652000Y-56896000D02*
X164652000Y-58226000D01*
X164652000Y-58226000D02*
X163322000Y-58226000D01*
X162052000Y-58226000D02*
X156912000Y-58226000D01*
X156912000Y-55566000D02*
X156912000Y-58226000D01*
X162052000Y-55566000D02*
X156912000Y-55566000D01*
X162052000Y-55566000D02*
X162052000Y-58226000D01*
X141224000Y-26864000D02*
X142554000Y-26864000D01*
X142554000Y-26864000D02*
X142554000Y-28194000D01*
X142554000Y-29464000D02*
X142554000Y-47304000D01*
X139894000Y-47304000D02*
X142554000Y-47304000D01*
X139894000Y-29464000D02*
X139894000Y-47304000D01*
X139894000Y-29464000D02*
X142554000Y-29464000D01*
X166624000Y-26610000D02*
X167954000Y-26610000D01*
X167954000Y-26610000D02*
X167954000Y-27940000D01*
X167954000Y-29210000D02*
X167954000Y-47050000D01*
X165294000Y-47050000D02*
X167954000Y-47050000D01*
X165294000Y-29210000D02*
X165294000Y-47050000D01*
X165294000Y-29210000D02*
X167954000Y-29210000D01*
X171222000Y-35814000D02*
X170722000Y-35564000D01*
X170722000Y-35564000D02*
X170722000Y-36064000D01*
X170722000Y-36064000D02*
X171222000Y-35814000D01*
X145824000Y-30000000D02*
X162024000Y-30000000D01*
X162024000Y-30000000D02*
X162024000Y-30400000D01*
X145824000Y-45800000D02*
X145824000Y-46200000D01*
X145824000Y-46200000D02*
X162024000Y-46200000D01*
X162024000Y-46200000D02*
X162024000Y-45800000D01*
X145824000Y-30000000D02*
X145824000Y-30350000D01*
X145824000Y-30350000D02*
X144924000Y-30350000D01*
%LPC*%
D13*
X141224000Y-52832000D03*
X141224000Y-50292000D03*
X143764000Y-52832000D03*
X143764000Y-50292000D03*
X146304000Y-52832000D03*
X146304000Y-50292000D03*
X148844000Y-52832000D03*
X148844000Y-50292000D03*
X151384000Y-52832000D03*
X151384000Y-50292000D03*
X153924000Y-52832000D03*
X153924000Y-50292000D03*
X156464000Y-52832000D03*
X156464000Y-50292000D03*
X159004000Y-52832000D03*
X159004000Y-50292000D03*
X161544000Y-52832000D03*
X161544000Y-50292000D03*
X164084000Y-52832000D03*
X164084000Y-50292000D03*
X166624000Y-52832000D03*
X166624000Y-50292000D03*
X169164000Y-52832000D03*
D14*
X169164000Y-50292000D03*
D13*
X172720000Y-52832000D03*
X172720000Y-50292000D03*
X172720000Y-47752000D03*
X172720000Y-45212000D03*
D14*
X172720000Y-42672000D03*
D13*
X141224000Y-56896000D03*
X143764000Y-56896000D03*
X146304000Y-56896000D03*
X148844000Y-56896000D03*
D14*
X151384000Y-56896000D03*
D13*
X172720000Y-56896000D03*
X170180000Y-56896000D03*
D14*
X167640000Y-56896000D03*
D13*
X158242000Y-56896000D03*
X160782000Y-56896000D03*
D14*
X163322000Y-56896000D03*
D13*
X141224000Y-45974000D03*
X141224000Y-43434000D03*
X141224000Y-40894000D03*
X141224000Y-38354000D03*
X141224000Y-35814000D03*
X141224000Y-33274000D03*
X141224000Y-30734000D03*
D14*
X141224000Y-28194000D03*
D13*
X166624000Y-45720000D03*
X166624000Y-43180000D03*
X166624000Y-40640000D03*
X166624000Y-38100000D03*
X166624000Y-35560000D03*
X166624000Y-33020000D03*
X166624000Y-30480000D03*
D14*
X166624000Y-27940000D03*
D15*
X173682000Y-35814000D03*
D16*
X173482000Y-32989000D03*
X173482000Y-38639000D03*
D17*
X145924000Y-31100000D03*
X145924000Y-33100000D03*
X145924000Y-35100000D03*
X145924000Y-37100000D03*
X145924000Y-39100000D03*
X145924000Y-41100000D03*
X145924000Y-43100000D03*
X145924000Y-45100000D03*
X161924000Y-45100000D03*
X161924000Y-43100000D03*
X161924000Y-41100000D03*
X161924000Y-39100000D03*
X161924000Y-37100000D03*
X161924000Y-35100000D03*
X161924000Y-33100000D03*
X161924000Y-31100000D03*
%LPD*%
M02*
