G04 #@! TF.GenerationSoftware,KiCad,Pcbnew,8.0.8*
G04 #@! TF.CreationDate,2025-03-21T12:20:43+00:00*
G04 #@! TF.ProjectId,RFM95W-pcb01,52464d39-3557-42d7-9063-6230312e6b69,rev?*
G04 #@! TF.SameCoordinates,Original*
G04 #@! TF.FileFunction,Copper,L1,Top*
G04 #@! TF.FilePolarity,Positive*
%FSLAX46Y46*%
G04 Gerber Fmt 4.6, Leading zero omitted, Abs format (unit mm)*
G04 Created by KiCad (PCBNEW 8.0.8) date 2025-03-21 12:20:43*
%MOMM*%
%LPD*%
G01*
G04 APERTURE LIST*
G04 #@! TA.AperFunction,ComponentPad*
%ADD10O,1.700000X1.700000*%
G04 #@! TD*
G04 #@! TA.AperFunction,ComponentPad*
%ADD11R,1.700000X1.700000*%
G04 #@! TD*
G04 #@! TA.AperFunction,SMDPad,CuDef*
%ADD12R,3.600000X1.270000*%
G04 #@! TD*
G04 #@! TA.AperFunction,SMDPad,CuDef*
%ADD13R,4.200000X1.350000*%
G04 #@! TD*
G04 #@! TA.AperFunction,SMDPad,CuDef*
%ADD14R,2.000000X1.000000*%
G04 #@! TD*
G04 #@! TA.AperFunction,ViaPad*
%ADD15C,0.800000*%
G04 #@! TD*
G04 #@! TA.AperFunction,Conductor*
%ADD16C,0.400000*%
G04 #@! TD*
G04 #@! TA.AperFunction,Conductor*
%ADD17C,0.800000*%
G04 #@! TD*
G04 APERTURE END LIST*
D10*
X141224000Y-52832000D03*
X141224000Y-50292000D03*
X143764000Y-52832000D03*
X143764000Y-50292000D03*
X146304000Y-52832000D03*
X146304000Y-50292000D03*
X148844000Y-52832000D03*
X148844000Y-50292000D03*
X151384000Y-52832000D03*
X151384000Y-50292000D03*
X153924000Y-52832000D03*
X153924000Y-50292000D03*
X156464000Y-52832000D03*
X156464000Y-50292000D03*
X159004000Y-52832000D03*
X159004000Y-50292000D03*
X161544000Y-52832000D03*
X161544000Y-50292000D03*
X164084000Y-52832000D03*
X164084000Y-50292000D03*
X166624000Y-52832000D03*
X166624000Y-50292000D03*
X169164000Y-52832000D03*
D11*
X169164000Y-50292000D03*
D10*
X172720000Y-52832000D03*
X172720000Y-50292000D03*
X172720000Y-47752000D03*
X172720000Y-45212000D03*
D11*
X172720000Y-42672000D03*
D10*
X141224000Y-56896000D03*
X143764000Y-56896000D03*
X146304000Y-56896000D03*
X148844000Y-56896000D03*
D11*
X151384000Y-56896000D03*
D10*
X172720000Y-56896000D03*
X170180000Y-56896000D03*
D11*
X167640000Y-56896000D03*
D10*
X158242000Y-56896000D03*
X160782000Y-56896000D03*
D11*
X163322000Y-56896000D03*
D10*
X141224000Y-45974000D03*
X141224000Y-43434000D03*
X141224000Y-40894000D03*
X141224000Y-38354000D03*
X141224000Y-35814000D03*
X141224000Y-33274000D03*
X141224000Y-30734000D03*
D11*
X141224000Y-28194000D03*
D10*
X166624000Y-45720000D03*
X166624000Y-43180000D03*
X166624000Y-40640000D03*
X166624000Y-38100000D03*
X166624000Y-35560000D03*
X166624000Y-33020000D03*
X166624000Y-30480000D03*
D11*
X166624000Y-27940000D03*
D12*
X173682000Y-35814000D03*
D13*
X173482000Y-32989000D03*
X173482000Y-38639000D03*
D14*
X145924000Y-31100000D03*
X145924000Y-33100000D03*
X145924000Y-35100000D03*
X145924000Y-37100000D03*
X145924000Y-39100000D03*
X145924000Y-41100000D03*
X145924000Y-43100000D03*
X145924000Y-45100000D03*
X161924000Y-45100000D03*
X161924000Y-43100000D03*
X161924000Y-41100000D03*
X161924000Y-39100000D03*
X161924000Y-37100000D03*
X161924000Y-35100000D03*
X161924000Y-33100000D03*
X161924000Y-31100000D03*
D15*
X138430000Y-38354000D03*
X148844000Y-42164000D03*
X148844000Y-33020000D03*
X150114000Y-42926000D03*
X150114000Y-38862000D03*
X155194000Y-54318000D03*
X155194000Y-57912000D03*
X156464000Y-42672000D03*
X156464000Y-37846000D03*
X157480000Y-43688000D03*
X157480000Y-39116000D03*
X170688000Y-46228000D03*
X167640000Y-48806000D03*
X149606000Y-47752000D03*
X152400000Y-47752000D03*
X154686000Y-36068000D03*
X159004000Y-37084000D03*
X169418000Y-47752000D03*
D16*
X144256000Y-39100000D02*
X145924000Y-39100000D01*
X141224000Y-38354000D02*
X143510000Y-38354000D01*
X143510000Y-38354000D02*
X144256000Y-39100000D01*
X141224000Y-52832000D02*
X138176000Y-52832000D01*
X138176000Y-52832000D02*
X138176000Y-38608000D01*
X138176000Y-38608000D02*
X138430000Y-38354000D01*
X143780000Y-37100000D02*
X145924000Y-37100000D01*
X141224000Y-35814000D02*
X142494000Y-35814000D01*
X142494000Y-35814000D02*
X143780000Y-37100000D01*
X139446000Y-35814000D02*
X141224000Y-35814000D01*
X139446000Y-50038000D02*
X139446000Y-35814000D01*
X141224000Y-50292000D02*
X139700000Y-50292000D01*
X139700000Y-50292000D02*
X139446000Y-50038000D01*
X141224000Y-56896000D02*
X141224000Y-54864000D01*
X141224000Y-54864000D02*
X143256000Y-54864000D01*
X143764000Y-54356000D02*
X143764000Y-52832000D01*
X143256000Y-54864000D02*
X143764000Y-54356000D01*
X141224000Y-30734000D02*
X142748000Y-30734000D01*
X142748000Y-30734000D02*
X142748000Y-31496000D01*
X144352000Y-33100000D02*
X145924000Y-33100000D01*
X142748000Y-31496000D02*
X144352000Y-33100000D01*
X144613999Y-49442001D02*
X144613999Y-47918001D01*
X143764000Y-50292000D02*
X144613999Y-49442001D01*
X144613999Y-47918001D02*
X145796000Y-46736000D01*
X145796000Y-46736000D02*
X147320000Y-46736000D01*
X147320000Y-46736000D02*
X148844000Y-45212000D01*
X148844000Y-45212000D02*
X148844000Y-42164000D01*
X146004000Y-33020000D02*
X145924000Y-33100000D01*
X148844000Y-33020000D02*
X146004000Y-33020000D01*
X144320000Y-35100000D02*
X145924000Y-35100000D01*
X141224000Y-33274000D02*
X142494000Y-33274000D01*
X142494000Y-33274000D02*
X144320000Y-35100000D01*
X147153999Y-49442001D02*
X147153999Y-48172001D01*
X146304000Y-50292000D02*
X147153999Y-49442001D01*
X147153999Y-48172001D02*
X150114000Y-45212000D01*
X150114000Y-45212000D02*
X150114000Y-42926000D01*
X150114000Y-38862000D02*
X150114000Y-35052000D01*
X150066000Y-35100000D02*
X145924000Y-35100000D01*
X150114000Y-35052000D02*
X150066000Y-35100000D01*
X144613999Y-56046001D02*
X144613999Y-55713999D01*
X143764000Y-56896000D02*
X144613999Y-56046001D01*
X144613999Y-55713999D02*
X144526000Y-55626000D01*
X144526000Y-55626000D02*
X144526000Y-54610000D01*
X144526000Y-54610000D02*
X147828000Y-54610000D01*
X147828000Y-53848000D02*
X148844000Y-52832000D01*
X147828000Y-54610000D02*
X147828000Y-53848000D01*
X149005990Y-55210010D02*
X151384000Y-52832000D01*
X147735990Y-55210010D02*
X149005990Y-55210010D01*
X147153999Y-55792001D02*
X147735990Y-55210010D01*
X146304000Y-56896000D02*
X147153999Y-56046001D01*
X147153999Y-56046001D02*
X147153999Y-55792001D01*
X145718000Y-40894000D02*
X145924000Y-41100000D01*
X141224000Y-40894000D02*
X145718000Y-40894000D01*
X151384000Y-49089919D02*
X151130000Y-48835919D01*
X151384000Y-50292000D02*
X151384000Y-49089919D01*
X151130000Y-48835919D02*
X151130000Y-41148000D01*
X151082000Y-41100000D02*
X145924000Y-41100000D01*
X151130000Y-41148000D02*
X151082000Y-41100000D01*
X165421919Y-40640000D02*
X164913919Y-41148000D01*
X166624000Y-40640000D02*
X165421919Y-40640000D01*
X164865919Y-41100000D02*
X161924000Y-41100000D01*
X164913919Y-41148000D02*
X164865919Y-41100000D01*
X153924000Y-50292000D02*
X153924000Y-41402000D01*
X154226000Y-41100000D02*
X161924000Y-41100000D01*
X153924000Y-41402000D02*
X154226000Y-41100000D01*
X165374000Y-27940000D02*
X164846000Y-28468000D01*
X166624000Y-27940000D02*
X165374000Y-27940000D01*
X164846000Y-28468000D02*
X164846000Y-29718000D01*
X163464000Y-31100000D02*
X161924000Y-31100000D01*
X164846000Y-29718000D02*
X163464000Y-31100000D01*
X156464000Y-52832000D02*
X156464000Y-53048000D01*
X156464000Y-53048000D02*
X155194000Y-54318000D01*
X151242000Y-31100000D02*
X161924000Y-31100000D01*
X147320000Y-27178000D02*
X151242000Y-31100000D01*
X144780000Y-27178000D02*
X147320000Y-27178000D01*
X155194000Y-59182000D02*
X137922000Y-59182000D01*
X155194000Y-57912000D02*
X155194000Y-59182000D01*
X137922000Y-59182000D02*
X137575990Y-58835990D01*
X143510000Y-25908000D02*
X144780000Y-27178000D01*
X137575990Y-58835990D02*
X137575990Y-26508010D01*
X137575990Y-26508010D02*
X138176000Y-25908000D01*
X138176000Y-25908000D02*
X143510000Y-25908000D01*
X165421919Y-30480000D02*
X164592000Y-31309919D01*
X166624000Y-30480000D02*
X165421919Y-30480000D01*
X164592000Y-31309919D02*
X164592000Y-31496000D01*
X162424000Y-33100000D02*
X161924000Y-33100000D01*
X164028000Y-31496000D02*
X162424000Y-33100000D01*
X164592000Y-31496000D02*
X164028000Y-31496000D01*
X156464000Y-50292000D02*
X156464000Y-42672000D01*
X156464000Y-37846000D02*
X156464000Y-33020000D01*
X156544000Y-33100000D02*
X161924000Y-33100000D01*
X156464000Y-33020000D02*
X156544000Y-33100000D01*
X149693999Y-56046001D02*
X149693999Y-55538001D01*
X148844000Y-56896000D02*
X149693999Y-56046001D01*
X149693999Y-55538001D02*
X150114000Y-55118000D01*
X150114000Y-55118000D02*
X155702000Y-55118000D01*
X155702000Y-55118000D02*
X156464000Y-54356000D01*
X157480000Y-54356000D02*
X159004000Y-52832000D01*
X156464000Y-54356000D02*
X157480000Y-54356000D01*
X152634000Y-56896000D02*
X152888000Y-56642000D01*
X151384000Y-56896000D02*
X152634000Y-56896000D01*
X152888000Y-56642000D02*
X155448000Y-56642000D01*
X155448000Y-56642000D02*
X156972000Y-55118000D01*
X157566542Y-55118000D02*
X157820542Y-54864000D01*
X156972000Y-55118000D02*
X157566542Y-55118000D01*
X157820542Y-54864000D02*
X159766000Y-54864000D01*
X159766000Y-54610000D02*
X161544000Y-52832000D01*
X159766000Y-54864000D02*
X159766000Y-54610000D01*
X165421919Y-33020000D02*
X165167919Y-33274000D01*
X166624000Y-33020000D02*
X165421919Y-33020000D01*
X165167919Y-33274000D02*
X165167919Y-33460081D01*
X163528000Y-35100000D02*
X161924000Y-35100000D01*
X165167919Y-33460081D02*
X163528000Y-35100000D01*
X161544000Y-50292000D02*
X161544000Y-47498000D01*
X161544000Y-47498000D02*
X157480000Y-47498000D01*
X157480000Y-47498000D02*
X157480000Y-43688000D01*
X157480000Y-39116000D02*
X157480000Y-35052000D01*
X157528000Y-35100000D02*
X161924000Y-35100000D01*
X157480000Y-35052000D02*
X157528000Y-35100000D01*
X165100000Y-49276000D02*
X164084000Y-50292000D01*
X170688000Y-42672000D02*
X168402000Y-44958000D01*
X172720000Y-42672000D02*
X170688000Y-42672000D01*
X168402000Y-44958000D02*
X168402000Y-47244000D01*
X167640000Y-48006000D02*
X165100000Y-48006000D01*
X168402000Y-47244000D02*
X167640000Y-48006000D01*
X165100000Y-48006000D02*
X165100000Y-49276000D01*
X172720000Y-45212000D02*
X170688000Y-45212000D01*
X170688000Y-45212000D02*
X170688000Y-46228000D01*
X167640000Y-49276000D02*
X166624000Y-50292000D01*
X167640000Y-48806000D02*
X167640000Y-49276000D01*
X166624000Y-45720000D02*
X165100000Y-45720000D01*
X164480000Y-45100000D02*
X161924000Y-45100000D01*
X165100000Y-45720000D02*
X164480000Y-45100000D01*
X167473999Y-44870001D02*
X167473999Y-44616001D01*
X166624000Y-45720000D02*
X167473999Y-44870001D01*
X167473999Y-44616001D02*
X168910000Y-43180000D01*
X168910000Y-43180000D02*
X168910000Y-36322000D01*
X169418000Y-35814000D02*
X172666000Y-35814000D01*
X168910000Y-36322000D02*
X169418000Y-35814000D01*
X141224000Y-43434000D02*
X143256000Y-43434000D01*
X143590000Y-43100000D02*
X145924000Y-43100000D01*
X143256000Y-43434000D02*
X143590000Y-43100000D01*
X165421919Y-38100000D02*
X165167919Y-38354000D01*
X166624000Y-38100000D02*
X165421919Y-38100000D01*
X165167919Y-38354000D02*
X165100000Y-38354000D01*
X164354000Y-39100000D02*
X161924000Y-39100000D01*
X165100000Y-38354000D02*
X164354000Y-39100000D01*
D17*
X163560000Y-37100000D02*
X161924000Y-37100000D01*
X166624000Y-35560000D02*
X165100000Y-35560000D01*
X165100000Y-35560000D02*
X163560000Y-37100000D01*
X148844000Y-50292000D02*
X148844000Y-48514000D01*
X148844000Y-48514000D02*
X149606000Y-47752000D01*
X152400000Y-47752000D02*
X152400000Y-47186315D01*
X152400000Y-47186315D02*
X152400000Y-38608000D01*
X152400000Y-38608000D02*
X154686000Y-36322000D01*
X154686000Y-36322000D02*
X154686000Y-36068000D01*
X161908000Y-37084000D02*
X161924000Y-37100000D01*
X159004000Y-37084000D02*
X161908000Y-37084000D01*
X169418000Y-50038000D02*
X169164000Y-50292000D01*
X169418000Y-47752000D02*
X169418000Y-50038000D01*
X172720000Y-47752000D02*
X169418000Y-47752000D01*
X172720000Y-47752000D02*
X174752000Y-47752000D01*
X174752000Y-47752000D02*
X174752000Y-56896000D01*
X174752000Y-56896000D02*
X172720000Y-56896000D01*
X172720000Y-56896000D02*
X172720000Y-58928000D01*
X172720000Y-58928000D02*
X158242000Y-58928000D01*
X158242000Y-58928000D02*
X158242000Y-56896000D01*
D16*
X142474000Y-28194000D02*
X142748000Y-28468000D01*
X141224000Y-28194000D02*
X142474000Y-28194000D01*
X142748000Y-28468000D02*
X142748000Y-29210000D01*
X145424000Y-31100000D02*
X145924000Y-31100000D01*
X143534000Y-29210000D02*
X145424000Y-31100000D01*
X142748000Y-29210000D02*
X143534000Y-29210000D01*
X143300081Y-45100000D02*
X145924000Y-45100000D01*
X141224000Y-45974000D02*
X142426081Y-45974000D01*
X142426081Y-45974000D02*
X143300081Y-45100000D01*
X162004000Y-43180000D02*
X161924000Y-43100000D01*
X166624000Y-43180000D02*
X162004000Y-43180000D01*
D17*
X166624000Y-52832000D02*
X169164000Y-52832000D01*
X172720000Y-52832000D02*
X169164000Y-52832000D01*
X166624000Y-55880000D02*
X167640000Y-56896000D01*
X166624000Y-52832000D02*
X166624000Y-55880000D01*
X167640000Y-56896000D02*
X163322000Y-56896000D01*
M02*
