M48
; DRILL file {KiCad 8.0.8} date 2025-03-21T12:20:53+0000
; FORMAT={-:-/ absolute / metric / decimal}
; #@! TF.CreationDate,2025-03-21T12:20:53+00:00
; #@! TF.GenerationSoftware,Kicad,Pcbnew,8.0.8
; #@! TF.FileFunction,Plated,1,2,PTH
FMAT,2
METRIC
; #@! TA.AperFunction,Plated,PTH,ViaDrill
T1C0.400
; #@! TA.AperFunction,Plated,PTH,ComponentDrill
T2C1.000
%
G90
G05
T1
X138.43Y-38.354
X148.844Y-33.02
X148.844Y-42.164
X149.606Y-47.752
X150.114Y-38.862
X150.114Y-42.926
X152.4Y-47.752
X154.686Y-36.068
X155.194Y-54.318
X155.194Y-57.912
X156.464Y-37.846
X156.464Y-42.672
X157.48Y-39.116
X157.48Y-43.688
X159.004Y-37.084
X167.64Y-48.806
X169.418Y-47.752
X170.688Y-46.228
T2
X141.224Y-28.194
X141.224Y-30.734
X141.224Y-33.274
X141.224Y-35.814
X141.224Y-38.354
X141.224Y-40.894
X141.224Y-43.434
X141.224Y-45.974
X141.224Y-50.292
X141.224Y-52.832
X141.224Y-56.896
X143.764Y-50.292
X143.764Y-52.832
X143.764Y-56.896
X146.304Y-50.292
X146.304Y-52.832
X146.304Y-56.896
X148.844Y-50.292
X148.844Y-52.832
X148.844Y-56.896
X151.384Y-50.292
X151.384Y-52.832
X151.384Y-56.896
X153.924Y-50.292
X153.924Y-52.832
X156.464Y-50.292
X156.464Y-52.832
X158.242Y-56.896
X159.004Y-50.292
X159.004Y-52.832
X160.782Y-56.896
X161.544Y-50.292
X161.544Y-52.832
X163.322Y-56.896
X164.084Y-50.292
X164.084Y-52.832
X166.624Y-27.94
X166.624Y-30.48
X166.624Y-33.02
X166.624Y-35.56
X166.624Y-38.1
X166.624Y-40.64
X166.624Y-43.18
X166.624Y-45.72
X166.624Y-50.292
X166.624Y-52.832
X167.64Y-56.896
X169.164Y-50.292
X169.164Y-52.832
X170.18Y-56.896
X172.72Y-42.672
X172.72Y-45.212
X172.72Y-47.752
X172.72Y-50.292
X172.72Y-52.832
X172.72Y-56.896
M30
