G04 #@! TF.GenerationSoftware,KiCad,Pcbnew,8.0.8*
G04 #@! TF.CreationDate,2025-03-21T12:20:43+00:00*
G04 #@! TF.ProjectId,RFM95W-pcb01,52464d39-3557-42d7-9063-6230312e6b69,rev?*
G04 #@! TF.SameCoordinates,Original*
G04 #@! TF.FileFunction,Soldermask,Bot*
G04 #@! TF.FilePolarity,Negative*
%FSLAX46Y46*%
G04 Gerber Fmt 4.6, Leading zero omitted, Abs format (unit mm)*
G04 Created by KiCad (PCBNEW 8.0.8) date 2025-03-21 12:20:43*
%MOMM*%
%LPD*%
G01*
G04 APERTURE LIST*
%ADD10O,1.700000X1.700000*%
%ADD11R,1.700000X1.700000*%
%ADD12R,4.200000X1.350000*%
G04 APERTURE END LIST*
D10*
X141224000Y-52832000D03*
X141224000Y-50292000D03*
X143764000Y-52832000D03*
X143764000Y-50292000D03*
X146304000Y-52832000D03*
X146304000Y-50292000D03*
X148844000Y-52832000D03*
X148844000Y-50292000D03*
X151384000Y-52832000D03*
X151384000Y-50292000D03*
X153924000Y-52832000D03*
X153924000Y-50292000D03*
X156464000Y-52832000D03*
X156464000Y-50292000D03*
X159004000Y-52832000D03*
X159004000Y-50292000D03*
X161544000Y-52832000D03*
X161544000Y-50292000D03*
X164084000Y-52832000D03*
X164084000Y-50292000D03*
X166624000Y-52832000D03*
X166624000Y-50292000D03*
X169164000Y-52832000D03*
D11*
X169164000Y-50292000D03*
D10*
X172720000Y-52832000D03*
X172720000Y-50292000D03*
X172720000Y-47752000D03*
X172720000Y-45212000D03*
D11*
X172720000Y-42672000D03*
D10*
X141224000Y-56896000D03*
X143764000Y-56896000D03*
X146304000Y-56896000D03*
X148844000Y-56896000D03*
D11*
X151384000Y-56896000D03*
D10*
X172720000Y-56896000D03*
X170180000Y-56896000D03*
D11*
X167640000Y-56896000D03*
D10*
X158242000Y-56896000D03*
X160782000Y-56896000D03*
D11*
X163322000Y-56896000D03*
D10*
X141224000Y-45974000D03*
X141224000Y-43434000D03*
X141224000Y-40894000D03*
X141224000Y-38354000D03*
X141224000Y-35814000D03*
X141224000Y-33274000D03*
X141224000Y-30734000D03*
D11*
X141224000Y-28194000D03*
D10*
X166624000Y-45720000D03*
X166624000Y-43180000D03*
X166624000Y-40640000D03*
X166624000Y-38100000D03*
X166624000Y-35560000D03*
X166624000Y-33020000D03*
X166624000Y-30480000D03*
D11*
X166624000Y-27940000D03*
D12*
X173482000Y-32989000D03*
X173482000Y-38639000D03*
M02*
