G04 #@! TF.GenerationSoftware,KiCad,Pcbnew,8.0.8*
G04 #@! TF.CreationDate,2025-03-21T12:20:43+00:00*
G04 #@! TF.ProjectId,RFM95W-pcb01,52464d39-3557-42d7-9063-6230312e6b69,rev?*
G04 #@! TF.SameCoordinates,Original*
G04 #@! TF.FileFunction,Legend,Bot*
G04 #@! TF.FilePolarity,Positive*
%FSLAX46Y46*%
G04 Gerber Fmt 4.6, Leading zero omitted, Abs format (unit mm)*
G04 Created by KiCad (PCBNEW 8.0.8) date 2025-03-21 12:20:43*
%MOMM*%
%LPD*%
G01*
G04 APERTURE LIST*
%ADD10C,0.200000*%
%ADD11O,1.700000X1.700000*%
%ADD12R,1.700000X1.700000*%
%ADD13R,4.200000X1.350000*%
G04 APERTURE END LIST*
D10*
X163749374Y-27110070D02*
X163901755Y-27033880D01*
X163901755Y-27033880D02*
X164130326Y-27033880D01*
X164130326Y-27033880D02*
X164358898Y-27110070D01*
X164358898Y-27110070D02*
X164511279Y-27262451D01*
X164511279Y-27262451D02*
X164587469Y-27414832D01*
X164587469Y-27414832D02*
X164663660Y-27719594D01*
X164663660Y-27719594D02*
X164663660Y-27948166D01*
X164663660Y-27948166D02*
X164587469Y-28252928D01*
X164587469Y-28252928D02*
X164511279Y-28405309D01*
X164511279Y-28405309D02*
X164358898Y-28557690D01*
X164358898Y-28557690D02*
X164130326Y-28633880D01*
X164130326Y-28633880D02*
X163977945Y-28633880D01*
X163977945Y-28633880D02*
X163749374Y-28557690D01*
X163749374Y-28557690D02*
X163673183Y-28481499D01*
X163673183Y-28481499D02*
X163673183Y-27948166D01*
X163673183Y-27948166D02*
X163977945Y-27948166D01*
X162377945Y-28557690D02*
X162530326Y-28633880D01*
X162530326Y-28633880D02*
X162835088Y-28633880D01*
X162835088Y-28633880D02*
X162987469Y-28557690D01*
X162987469Y-28557690D02*
X163063660Y-28405309D01*
X163063660Y-28405309D02*
X163063660Y-27795785D01*
X163063660Y-27795785D02*
X162987469Y-27643404D01*
X162987469Y-27643404D02*
X162835088Y-27567213D01*
X162835088Y-27567213D02*
X162530326Y-27567213D01*
X162530326Y-27567213D02*
X162377945Y-27643404D01*
X162377945Y-27643404D02*
X162301755Y-27795785D01*
X162301755Y-27795785D02*
X162301755Y-27948166D01*
X162301755Y-27948166D02*
X163063660Y-28100547D01*
X161387469Y-28633880D02*
X161539850Y-28557690D01*
X161539850Y-28557690D02*
X161616040Y-28481499D01*
X161616040Y-28481499D02*
X161692231Y-28329118D01*
X161692231Y-28329118D02*
X161692231Y-27871975D01*
X161692231Y-27871975D02*
X161616040Y-27719594D01*
X161616040Y-27719594D02*
X161539850Y-27643404D01*
X161539850Y-27643404D02*
X161387469Y-27567213D01*
X161387469Y-27567213D02*
X161158897Y-27567213D01*
X161158897Y-27567213D02*
X161006516Y-27643404D01*
X161006516Y-27643404D02*
X160930326Y-27719594D01*
X160930326Y-27719594D02*
X160854135Y-27871975D01*
X160854135Y-27871975D02*
X160854135Y-28329118D01*
X160854135Y-28329118D02*
X160930326Y-28481499D01*
X160930326Y-28481499D02*
X161006516Y-28557690D01*
X161006516Y-28557690D02*
X161158897Y-28633880D01*
X161158897Y-28633880D02*
X161387469Y-28633880D01*
X160396993Y-27567213D02*
X159787469Y-27567213D01*
X160168421Y-28633880D02*
X160168421Y-27262451D01*
X160168421Y-27262451D02*
X160092231Y-27110070D01*
X160092231Y-27110070D02*
X159939850Y-27033880D01*
X159939850Y-27033880D02*
X159787469Y-27033880D01*
X159482707Y-27567213D02*
X158873183Y-27567213D01*
X159254135Y-28633880D02*
X159254135Y-27262451D01*
X159254135Y-27262451D02*
X159177945Y-27110070D01*
X159177945Y-27110070D02*
X159025564Y-27033880D01*
X159025564Y-27033880D02*
X158873183Y-27033880D01*
X156587468Y-27795785D02*
X156358896Y-27871975D01*
X156358896Y-27871975D02*
X156282706Y-27948166D01*
X156282706Y-27948166D02*
X156206515Y-28100547D01*
X156206515Y-28100547D02*
X156206515Y-28329118D01*
X156206515Y-28329118D02*
X156282706Y-28481499D01*
X156282706Y-28481499D02*
X156358896Y-28557690D01*
X156358896Y-28557690D02*
X156511277Y-28633880D01*
X156511277Y-28633880D02*
X157120801Y-28633880D01*
X157120801Y-28633880D02*
X157120801Y-27033880D01*
X157120801Y-27033880D02*
X156587468Y-27033880D01*
X156587468Y-27033880D02*
X156435087Y-27110070D01*
X156435087Y-27110070D02*
X156358896Y-27186261D01*
X156358896Y-27186261D02*
X156282706Y-27338642D01*
X156282706Y-27338642D02*
X156282706Y-27491023D01*
X156282706Y-27491023D02*
X156358896Y-27643404D01*
X156358896Y-27643404D02*
X156435087Y-27719594D01*
X156435087Y-27719594D02*
X156587468Y-27795785D01*
X156587468Y-27795785D02*
X157120801Y-27795785D01*
X155520801Y-28633880D02*
X155520801Y-27567213D01*
X155520801Y-27871975D02*
X155444611Y-27719594D01*
X155444611Y-27719594D02*
X155368420Y-27643404D01*
X155368420Y-27643404D02*
X155216039Y-27567213D01*
X155216039Y-27567213D02*
X155063658Y-27567213D01*
X154530325Y-28633880D02*
X154530325Y-27567213D01*
X154530325Y-27033880D02*
X154606516Y-27110070D01*
X154606516Y-27110070D02*
X154530325Y-27186261D01*
X154530325Y-27186261D02*
X154454135Y-27110070D01*
X154454135Y-27110070D02*
X154530325Y-27033880D01*
X154530325Y-27033880D02*
X154530325Y-27186261D01*
X153082706Y-28557690D02*
X153235087Y-28633880D01*
X153235087Y-28633880D02*
X153539849Y-28633880D01*
X153539849Y-28633880D02*
X153692230Y-28557690D01*
X153692230Y-28557690D02*
X153768420Y-28481499D01*
X153768420Y-28481499D02*
X153844611Y-28329118D01*
X153844611Y-28329118D02*
X153844611Y-27871975D01*
X153844611Y-27871975D02*
X153768420Y-27719594D01*
X153768420Y-27719594D02*
X153692230Y-27643404D01*
X153692230Y-27643404D02*
X153539849Y-27567213D01*
X153539849Y-27567213D02*
X153235087Y-27567213D01*
X153235087Y-27567213D02*
X153082706Y-27643404D01*
X152396991Y-28633880D02*
X152396991Y-27033880D01*
X152244610Y-28024356D02*
X151787467Y-28633880D01*
X151787467Y-27567213D02*
X152396991Y-28176737D01*
X150492229Y-28557690D02*
X150644610Y-28633880D01*
X150644610Y-28633880D02*
X150949372Y-28633880D01*
X150949372Y-28633880D02*
X151101753Y-28557690D01*
X151101753Y-28557690D02*
X151177944Y-28405309D01*
X151177944Y-28405309D02*
X151177944Y-27795785D01*
X151177944Y-27795785D02*
X151101753Y-27643404D01*
X151101753Y-27643404D02*
X150949372Y-27567213D01*
X150949372Y-27567213D02*
X150644610Y-27567213D01*
X150644610Y-27567213D02*
X150492229Y-27643404D01*
X150492229Y-27643404D02*
X150416039Y-27795785D01*
X150416039Y-27795785D02*
X150416039Y-27948166D01*
X150416039Y-27948166D02*
X151177944Y-28100547D01*
X149501753Y-28633880D02*
X149654134Y-28557690D01*
X149654134Y-28557690D02*
X149730324Y-28405309D01*
X149730324Y-28405309D02*
X149730324Y-27033880D01*
X148663658Y-28633880D02*
X148816039Y-28557690D01*
X148816039Y-28557690D02*
X148892229Y-28405309D01*
X148892229Y-28405309D02*
X148892229Y-27033880D01*
X163673183Y-31209790D02*
X164206517Y-30447885D01*
X164587469Y-31209790D02*
X164587469Y-29609790D01*
X164587469Y-29609790D02*
X163977945Y-29609790D01*
X163977945Y-29609790D02*
X163825564Y-29685980D01*
X163825564Y-29685980D02*
X163749374Y-29762171D01*
X163749374Y-29762171D02*
X163673183Y-29914552D01*
X163673183Y-29914552D02*
X163673183Y-30143123D01*
X163673183Y-30143123D02*
X163749374Y-30295504D01*
X163749374Y-30295504D02*
X163825564Y-30371695D01*
X163825564Y-30371695D02*
X163977945Y-30447885D01*
X163977945Y-30447885D02*
X164587469Y-30447885D01*
X162454136Y-30371695D02*
X162987469Y-30371695D01*
X162987469Y-31209790D02*
X162987469Y-29609790D01*
X162987469Y-29609790D02*
X162225564Y-29609790D01*
X161616040Y-31209790D02*
X161616040Y-29609790D01*
X161616040Y-29609790D02*
X161082707Y-30752647D01*
X161082707Y-30752647D02*
X160549373Y-29609790D01*
X160549373Y-29609790D02*
X160549373Y-31209790D01*
X159711279Y-31209790D02*
X159406517Y-31209790D01*
X159406517Y-31209790D02*
X159254136Y-31133600D01*
X159254136Y-31133600D02*
X159177945Y-31057409D01*
X159177945Y-31057409D02*
X159025564Y-30828838D01*
X159025564Y-30828838D02*
X158949374Y-30524076D01*
X158949374Y-30524076D02*
X158949374Y-29914552D01*
X158949374Y-29914552D02*
X159025564Y-29762171D01*
X159025564Y-29762171D02*
X159101755Y-29685980D01*
X159101755Y-29685980D02*
X159254136Y-29609790D01*
X159254136Y-29609790D02*
X159558898Y-29609790D01*
X159558898Y-29609790D02*
X159711279Y-29685980D01*
X159711279Y-29685980D02*
X159787469Y-29762171D01*
X159787469Y-29762171D02*
X159863660Y-29914552D01*
X159863660Y-29914552D02*
X159863660Y-30295504D01*
X159863660Y-30295504D02*
X159787469Y-30447885D01*
X159787469Y-30447885D02*
X159711279Y-30524076D01*
X159711279Y-30524076D02*
X159558898Y-30600266D01*
X159558898Y-30600266D02*
X159254136Y-30600266D01*
X159254136Y-30600266D02*
X159101755Y-30524076D01*
X159101755Y-30524076D02*
X159025564Y-30447885D01*
X159025564Y-30447885D02*
X158949374Y-30295504D01*
X157501754Y-29609790D02*
X158263659Y-29609790D01*
X158263659Y-29609790D02*
X158339850Y-30371695D01*
X158339850Y-30371695D02*
X158263659Y-30295504D01*
X158263659Y-30295504D02*
X158111278Y-30219314D01*
X158111278Y-30219314D02*
X157730326Y-30219314D01*
X157730326Y-30219314D02*
X157577945Y-30295504D01*
X157577945Y-30295504D02*
X157501754Y-30371695D01*
X157501754Y-30371695D02*
X157425564Y-30524076D01*
X157425564Y-30524076D02*
X157425564Y-30905028D01*
X157425564Y-30905028D02*
X157501754Y-31057409D01*
X157501754Y-31057409D02*
X157577945Y-31133600D01*
X157577945Y-31133600D02*
X157730326Y-31209790D01*
X157730326Y-31209790D02*
X158111278Y-31209790D01*
X158111278Y-31209790D02*
X158263659Y-31133600D01*
X158263659Y-31133600D02*
X158339850Y-31057409D01*
X156892230Y-29609790D02*
X156511278Y-31209790D01*
X156511278Y-31209790D02*
X156206516Y-30066933D01*
X156206516Y-30066933D02*
X155901754Y-31209790D01*
X155901754Y-31209790D02*
X155520802Y-29609790D01*
X153006516Y-31209790D02*
X153006516Y-29609790D01*
X153006516Y-31133600D02*
X153158897Y-31209790D01*
X153158897Y-31209790D02*
X153463659Y-31209790D01*
X153463659Y-31209790D02*
X153616040Y-31133600D01*
X153616040Y-31133600D02*
X153692230Y-31057409D01*
X153692230Y-31057409D02*
X153768421Y-30905028D01*
X153768421Y-30905028D02*
X153768421Y-30447885D01*
X153768421Y-30447885D02*
X153692230Y-30295504D01*
X153692230Y-30295504D02*
X153616040Y-30219314D01*
X153616040Y-30219314D02*
X153463659Y-30143123D01*
X153463659Y-30143123D02*
X153158897Y-30143123D01*
X153158897Y-30143123D02*
X153006516Y-30219314D01*
X151635087Y-31133600D02*
X151787468Y-31209790D01*
X151787468Y-31209790D02*
X152092230Y-31209790D01*
X152092230Y-31209790D02*
X152244611Y-31133600D01*
X152244611Y-31133600D02*
X152320802Y-30981219D01*
X152320802Y-30981219D02*
X152320802Y-30371695D01*
X152320802Y-30371695D02*
X152244611Y-30219314D01*
X152244611Y-30219314D02*
X152092230Y-30143123D01*
X152092230Y-30143123D02*
X151787468Y-30143123D01*
X151787468Y-30143123D02*
X151635087Y-30219314D01*
X151635087Y-30219314D02*
X151558897Y-30371695D01*
X151558897Y-30371695D02*
X151558897Y-30524076D01*
X151558897Y-30524076D02*
X152320802Y-30676457D01*
X151025563Y-30143123D02*
X150644611Y-31209790D01*
X150644611Y-31209790D02*
X150263658Y-30143123D01*
X148435086Y-31209790D02*
X148435086Y-29609790D01*
X148435086Y-29609790D02*
X147825562Y-29609790D01*
X147825562Y-29609790D02*
X147673181Y-29685980D01*
X147673181Y-29685980D02*
X147596991Y-29762171D01*
X147596991Y-29762171D02*
X147520800Y-29914552D01*
X147520800Y-29914552D02*
X147520800Y-30143123D01*
X147520800Y-30143123D02*
X147596991Y-30295504D01*
X147596991Y-30295504D02*
X147673181Y-30371695D01*
X147673181Y-30371695D02*
X147825562Y-30447885D01*
X147825562Y-30447885D02*
X148435086Y-30447885D01*
X145920800Y-31057409D02*
X145996991Y-31133600D01*
X145996991Y-31133600D02*
X146225562Y-31209790D01*
X146225562Y-31209790D02*
X146377943Y-31209790D01*
X146377943Y-31209790D02*
X146606515Y-31133600D01*
X146606515Y-31133600D02*
X146758896Y-30981219D01*
X146758896Y-30981219D02*
X146835086Y-30828838D01*
X146835086Y-30828838D02*
X146911277Y-30524076D01*
X146911277Y-30524076D02*
X146911277Y-30295504D01*
X146911277Y-30295504D02*
X146835086Y-29990742D01*
X146835086Y-29990742D02*
X146758896Y-29838361D01*
X146758896Y-29838361D02*
X146606515Y-29685980D01*
X146606515Y-29685980D02*
X146377943Y-29609790D01*
X146377943Y-29609790D02*
X146225562Y-29609790D01*
X146225562Y-29609790D02*
X145996991Y-29685980D01*
X145996991Y-29685980D02*
X145920800Y-29762171D01*
X144701753Y-30371695D02*
X144473181Y-30447885D01*
X144473181Y-30447885D02*
X144396991Y-30524076D01*
X144396991Y-30524076D02*
X144320800Y-30676457D01*
X144320800Y-30676457D02*
X144320800Y-30905028D01*
X144320800Y-30905028D02*
X144396991Y-31057409D01*
X144396991Y-31057409D02*
X144473181Y-31133600D01*
X144473181Y-31133600D02*
X144625562Y-31209790D01*
X144625562Y-31209790D02*
X145235086Y-31209790D01*
X145235086Y-31209790D02*
X145235086Y-29609790D01*
X145235086Y-29609790D02*
X144701753Y-29609790D01*
X144701753Y-29609790D02*
X144549372Y-29685980D01*
X144549372Y-29685980D02*
X144473181Y-29762171D01*
X144473181Y-29762171D02*
X144396991Y-29914552D01*
X144396991Y-29914552D02*
X144396991Y-30066933D01*
X144396991Y-30066933D02*
X144473181Y-30219314D01*
X144473181Y-30219314D02*
X144549372Y-30295504D01*
X144549372Y-30295504D02*
X144701753Y-30371695D01*
X144701753Y-30371695D02*
X145235086Y-30371695D01*
X164739850Y-32719033D02*
X164358898Y-33785700D01*
X164358898Y-33785700D02*
X163977945Y-32719033D01*
X162530326Y-33785700D02*
X163444612Y-33785700D01*
X162987469Y-33785700D02*
X162987469Y-32185700D01*
X162987469Y-32185700D02*
X163139850Y-32414271D01*
X163139850Y-32414271D02*
X163292231Y-32566652D01*
X163292231Y-32566652D02*
X163444612Y-32642843D01*
X161844611Y-33633319D02*
X161768421Y-33709510D01*
X161768421Y-33709510D02*
X161844611Y-33785700D01*
X161844611Y-33785700D02*
X161920802Y-33709510D01*
X161920802Y-33709510D02*
X161844611Y-33633319D01*
X161844611Y-33633319D02*
X161844611Y-33785700D01*
X160777944Y-32185700D02*
X160625563Y-32185700D01*
X160625563Y-32185700D02*
X160473182Y-32261890D01*
X160473182Y-32261890D02*
X160396992Y-32338081D01*
X160396992Y-32338081D02*
X160320801Y-32490462D01*
X160320801Y-32490462D02*
X160244611Y-32795224D01*
X160244611Y-32795224D02*
X160244611Y-33176176D01*
X160244611Y-33176176D02*
X160320801Y-33480938D01*
X160320801Y-33480938D02*
X160396992Y-33633319D01*
X160396992Y-33633319D02*
X160473182Y-33709510D01*
X160473182Y-33709510D02*
X160625563Y-33785700D01*
X160625563Y-33785700D02*
X160777944Y-33785700D01*
X160777944Y-33785700D02*
X160930325Y-33709510D01*
X160930325Y-33709510D02*
X161006516Y-33633319D01*
X161006516Y-33633319D02*
X161082706Y-33480938D01*
X161082706Y-33480938D02*
X161158897Y-33176176D01*
X161158897Y-33176176D02*
X161158897Y-32795224D01*
X161158897Y-32795224D02*
X161082706Y-32490462D01*
X161082706Y-32490462D02*
X161006516Y-32338081D01*
X161006516Y-32338081D02*
X160930325Y-32261890D01*
X160930325Y-32261890D02*
X160777944Y-32185700D01*
X157273181Y-32185700D02*
X156206514Y-32185700D01*
X156206514Y-32185700D02*
X156892229Y-33785700D01*
X155596990Y-33176176D02*
X154377943Y-33176176D01*
X152777943Y-33785700D02*
X153692229Y-33785700D01*
X153235086Y-33785700D02*
X153235086Y-32185700D01*
X153235086Y-32185700D02*
X153387467Y-32414271D01*
X153387467Y-32414271D02*
X153539848Y-32566652D01*
X153539848Y-32566652D02*
X153692229Y-32642843D01*
X152016038Y-33785700D02*
X151711276Y-33785700D01*
X151711276Y-33785700D02*
X151558895Y-33709510D01*
X151558895Y-33709510D02*
X151482704Y-33633319D01*
X151482704Y-33633319D02*
X151330323Y-33404748D01*
X151330323Y-33404748D02*
X151254133Y-33099986D01*
X151254133Y-33099986D02*
X151254133Y-32490462D01*
X151254133Y-32490462D02*
X151330323Y-32338081D01*
X151330323Y-32338081D02*
X151406514Y-32261890D01*
X151406514Y-32261890D02*
X151558895Y-32185700D01*
X151558895Y-32185700D02*
X151863657Y-32185700D01*
X151863657Y-32185700D02*
X152016038Y-32261890D01*
X152016038Y-32261890D02*
X152092228Y-32338081D01*
X152092228Y-32338081D02*
X152168419Y-32490462D01*
X152168419Y-32490462D02*
X152168419Y-32871414D01*
X152168419Y-32871414D02*
X152092228Y-33023795D01*
X152092228Y-33023795D02*
X152016038Y-33099986D01*
X152016038Y-33099986D02*
X151863657Y-33176176D01*
X151863657Y-33176176D02*
X151558895Y-33176176D01*
X151558895Y-33176176D02*
X151406514Y-33099986D01*
X151406514Y-33099986D02*
X151330323Y-33023795D01*
X151330323Y-33023795D02*
X151254133Y-32871414D01*
%LPC*%
D11*
X141224000Y-52832000D03*
X141224000Y-50292000D03*
X143764000Y-52832000D03*
X143764000Y-50292000D03*
X146304000Y-52832000D03*
X146304000Y-50292000D03*
X148844000Y-52832000D03*
X148844000Y-50292000D03*
X151384000Y-52832000D03*
X151384000Y-50292000D03*
X153924000Y-52832000D03*
X153924000Y-50292000D03*
X156464000Y-52832000D03*
X156464000Y-50292000D03*
X159004000Y-52832000D03*
X159004000Y-50292000D03*
X161544000Y-52832000D03*
X161544000Y-50292000D03*
X164084000Y-52832000D03*
X164084000Y-50292000D03*
X166624000Y-52832000D03*
X166624000Y-50292000D03*
X169164000Y-52832000D03*
D12*
X169164000Y-50292000D03*
D11*
X172720000Y-52832000D03*
X172720000Y-50292000D03*
X172720000Y-47752000D03*
X172720000Y-45212000D03*
D12*
X172720000Y-42672000D03*
D11*
X141224000Y-56896000D03*
X143764000Y-56896000D03*
X146304000Y-56896000D03*
X148844000Y-56896000D03*
D12*
X151384000Y-56896000D03*
D11*
X172720000Y-56896000D03*
X170180000Y-56896000D03*
D12*
X167640000Y-56896000D03*
D11*
X158242000Y-56896000D03*
X160782000Y-56896000D03*
D12*
X163322000Y-56896000D03*
D11*
X141224000Y-45974000D03*
X141224000Y-43434000D03*
X141224000Y-40894000D03*
X141224000Y-38354000D03*
X141224000Y-35814000D03*
X141224000Y-33274000D03*
X141224000Y-30734000D03*
D12*
X141224000Y-28194000D03*
D11*
X166624000Y-45720000D03*
X166624000Y-43180000D03*
X166624000Y-40640000D03*
X166624000Y-38100000D03*
X166624000Y-35560000D03*
X166624000Y-33020000D03*
X166624000Y-30480000D03*
D12*
X166624000Y-27940000D03*
D13*
X173482000Y-32989000D03*
X173482000Y-38639000D03*
%LPD*%
M02*
